<svg width="18" height="18" viewBox="0 0 18 18" fill="none" xmlns="http://www.w3.org/2000/svg">
<path d="M9 6.75V1.5L7.5 3" stroke="#093A75" stroke-width="1.5" stroke-linecap="round" stroke-linejoin="round"/>
<path d="M9 1.5L10.5 3" stroke="#093A75" stroke-width="1.5" stroke-linecap="round" stroke-linejoin="round"/>
<path d="M1.485 9.75H4.7925C5.0775 9.75 5.3325 9.9075 5.46 10.1625L6.3375 11.9175C6.5925 12.4275 7.11 12.75 7.68 12.75H10.3275C10.8975 12.75 11.415 12.4275 11.67 11.9175L12.5475 10.1625C12.675 9.9075 12.9375 9.75 13.215 9.75H16.485" stroke="#093A75" stroke-width="1.5" stroke-linecap="round" stroke-linejoin="round"/>
<path d="M2.0175 14.25C2.7375 15.825 4.2375 16.5 6.75 16.5H11.25C15 16.5 16.5 15 16.5 11.25V8.99997C16.5 5.79747 15.405 4.23747 12.75 3.84747" stroke="#093A75" stroke-width="1.5" stroke-linecap="round" stroke-linejoin="round"/>
<path d="M5.25 3.84747C2.595 4.23747 1.5 5.79747 1.5 8.99997V11.25" stroke="#093A75" stroke-width="1.5" stroke-linecap="round" stroke-linejoin="round"/>
</svg>
