<svg width="18" height="18" viewBox="0 0 18 18" fill="none" xmlns="http://www.w3.org/2000/svg">
<path d="M2.25 5.25C2.25 3 3.375 1.5 6 1.5H12C14.625 1.5 15.75 3 15.75 5.25V12.75C15.75 15 14.625 16.5 12 16.5H6C3.375 16.5 2.25 15 2.25 12.75V8.26501" stroke="#093A75" stroke-width="1.5" stroke-miterlimit="10" stroke-linecap="round" stroke-linejoin="round"/>
<path d="M10.875 3.375V4.875C10.875 5.7 11.55 6.375 12.375 6.375H13.875" stroke="#093A75" stroke-width="1.5" stroke-miterlimit="10" stroke-linecap="round" stroke-linejoin="round"/>
<path d="M5.61001 11.6174C5.36251 10.8449 5.65499 9.89247 6.45749 9.62997C6.88499 9.49497 7.41 9.60744 7.7025 10.0199C7.98 9.59244 8.5275 9.49497 8.9475 9.62997C9.7575 9.89247 10.0425 10.8449 9.80251 11.6174C9.42001 12.8399 8.0775 13.4774 7.7025 13.4774C7.335 13.4699 6.00751 12.8474 5.61001 11.6174Z" stroke="#093A75" stroke-width="1.5" stroke-linecap="round" stroke-linejoin="round"/>
</svg>
