<svg width="18" height="18" viewBox="0 0 18 18" fill="none" xmlns="http://www.w3.org/2000/svg">
<path d="M9 16.5C13.1421 16.5 16.5 13.1421 16.5 9C16.5 4.85786 13.1421 1.5 9 1.5C4.85786 1.5 1.5 4.85786 1.5 9C1.5 13.1421 4.85786 16.5 9 16.5Z" stroke="#093A75" stroke-width="1.5" stroke-linecap="round" stroke-linejoin="round"/>
<path d="M5.655 9C5.655 11.28 6.0225 13.56 6.75 15.75H6" stroke="#093A75" stroke-width="1.5" stroke-linecap="round" stroke-linejoin="round"/>
<path d="M6 2.25H6.75C6.3825 3.345 6.1125 4.4625 5.925 5.595" stroke="#093A75" stroke-width="1.5" stroke-linecap="round" stroke-linejoin="round"/>
<path d="M12.0975 12.27C11.91 13.44 11.6325 14.61 11.25 15.75" stroke="#093A75" stroke-width="1.5" stroke-linecap="round" stroke-linejoin="round"/>
<path d="M11.25 2.25C11.9775 4.44 12.345 6.72 12.345 9" stroke="#093A75" stroke-width="1.5" stroke-linecap="round" stroke-linejoin="round"/>
<path d="M2.25 12V11.25C6.63 12.7125 11.37 12.7125 15.75 11.25V12" stroke="#093A75" stroke-width="1.5" stroke-linecap="round" stroke-linejoin="round"/>
<path d="M2.25 6.75001C6.63 5.28751 11.37 5.28751 15.75 6.75001" stroke="#093A75" stroke-width="1.5" stroke-linecap="round" stroke-linejoin="round"/>
</svg>
