<svg width="20" height="21" viewBox="0 0 20 21" fill="none" xmlns="http://www.w3.org/2000/svg">
<path fill-rule="evenodd" clip-rule="evenodd" d="M12.5463 15.3926H7.14275C6.75804 15.3926 6.44581 15.0751 6.44581 14.6838C6.44581 14.2925 6.75804 13.975 7.14275 13.975H12.5463C12.931 13.975 13.2433 14.2925 13.2433 14.6838C13.2433 15.0751 12.931 15.3926 12.5463 15.3926ZM16.5802 5.2544C16.2429 4.95196 15.8591 4.60983 15.4019 4.1798C15.1947 4.00968 14.9679 3.81499 14.7273 3.60895C13.3706 2.44552 11.5121 0.852051 9.81805 0.852051C8.14355 0.852051 6.40493 2.35667 5.00827 3.56548C4.74994 3.78852 4.50833 3.99834 4.26208 4.20154C3.82905 4.60983 3.44527 4.95291 3.10703 5.25629C0.888912 7.24197 0.47168 7.76273 0.47168 12.3947C0.47168 20.6995 2.8329 20.6995 9.84407 20.6995C16.8543 20.6995 19.2165 20.6995 19.2165 12.3947C19.2165 7.76179 18.7992 7.24103 16.5802 5.2544Z" fill="#FF7625"/>
</svg>
