<svg width="175" height="36" viewBox="0 0 175 36" fill="none" xmlns="http://www.w3.org/2000/svg">
<path d="M42.5972 27.9373H41.0305V32.2002H40.1051V27.9373H38.5456V27.1721H42.5972V27.9373ZM47.6047 29.6643C47.6047 30.5582 47.4128 31.2189 47.029 31.6464C46.6501 32.069 46.0671 32.2804 45.2801 32.2804C44.498 32.2804 43.915 32.069 43.5312 31.6464C43.1523 31.2189 42.9628 30.5582 42.9628 29.6643C42.9628 28.7899 43.1523 28.1437 43.5312 27.726C43.915 27.3033 44.498 27.092 45.2801 27.092C46.0623 27.092 46.6452 27.3033 47.029 27.726C47.4128 28.1437 47.6047 28.7899 47.6047 29.6643ZM46.6428 29.9412V29.4311C46.6428 28.3624 46.1886 27.828 45.2801 27.828C44.8137 27.828 44.4713 27.9616 44.2526 28.2288C44.034 28.496 43.9247 28.8967 43.9247 29.4311V29.9412C43.9247 30.4853 44.0316 30.8885 44.2454 31.1509C44.464 31.4132 44.8089 31.5444 45.2801 31.5444C45.7513 31.5444 46.0963 31.4132 46.3149 31.1509C46.5335 30.8885 46.6428 30.4853 46.6428 29.9412ZM52.2999 30.8084C52.2999 31.299 52.1299 31.6682 51.7898 31.916C51.4546 32.1589 50.9737 32.2804 50.347 32.2804C49.6863 32.2804 49.1859 32.1565 48.8459 31.9087C48.5107 31.6561 48.3285 31.2577 48.2993 30.7136H49.2612C49.2807 31.0197 49.3754 31.2359 49.5454 31.3622C49.7203 31.4885 49.9851 31.5516 50.3397 31.5516C51.0198 31.5516 51.3599 31.316 51.3599 30.8448C51.3599 30.6602 51.304 30.512 51.1923 30.4003C51.0854 30.2837 50.9445 30.2011 50.7696 30.1525C50.5996 30.0991 50.4077 30.0554 50.194 30.0214C49.9851 29.9874 49.7738 29.9436 49.56 29.8902C49.3511 29.8319 49.1592 29.7566 48.9843 29.6643C48.8094 29.572 48.6661 29.4287 48.5544 29.2344C48.4475 29.04 48.3941 28.7971 48.3941 28.5057C48.3941 28.0539 48.5568 27.7065 48.8823 27.4636C49.2078 27.2159 49.6644 27.092 50.2523 27.092C51.5008 27.092 52.1493 27.5632 52.1979 28.5057H51.236C51.2117 28.253 51.117 28.0757 50.9518 27.9737C50.7915 27.8717 50.5583 27.8207 50.2523 27.8207C49.6402 27.8207 49.3341 28.0466 49.3341 28.4984C49.3341 28.6733 49.3875 28.8142 49.4944 28.921C49.6062 29.023 49.7495 29.0983 49.9244 29.1469C50.0992 29.1955 50.2911 29.2392 50.5 29.2781C50.7138 29.3121 50.9251 29.3583 51.134 29.4165C51.3429 29.47 51.5348 29.5453 51.7097 29.6424C51.8846 29.7347 52.0254 29.8805 52.1323 30.0797C52.2441 30.2788 52.2999 30.5217 52.2999 30.8084ZM57.1941 32.2002H56.2686V30.0287H54.1554V32.2002H53.2299V27.1721H54.1554V29.2635H56.2686V27.1721H57.1941V32.2002ZM59.3147 27.1721V29.2781H59.73L61.253 27.1721H62.2732L60.5025 29.6206L62.4335 32.2002H61.3332L59.73 30.0651H59.3147V32.2002H58.3892V27.1721H59.3147ZM66.5385 32.2002H63.15V27.1721H66.4874V27.9227H64.0754V29.2708H65.9191V30.0141H64.0754V31.4496H66.5385V32.2002ZM68.7227 27.1721L70.6465 31.0197V27.1721H71.5137V32.2002H70.2676L68.3438 28.3526V32.2002H67.4767V27.1721H68.7227ZM76.3069 27.9373H74.7402V32.2002H73.8147V27.9373H72.2553V27.1721H76.3069V27.9373ZM82.71 30.7719C82.71 31.7241 82.1659 32.2002 81.0777 32.2002H78.8698V27.1721H80.9976C82.0178 27.1721 82.5279 27.5899 82.5279 28.4255C82.5279 28.9939 82.2704 29.3704 81.7554 29.555C82.3918 29.7153 82.71 30.121 82.71 30.7719ZM81.7554 30.5752C81.7554 30.1623 81.481 29.9558 80.932 29.9558H79.7879V31.5006H80.932C81.481 31.5006 81.7554 31.2845 81.7554 30.8521V30.5752ZM81.5733 28.4401C81.5733 28.0612 81.3352 27.8717 80.8591 27.8717H79.7879V29.3H80.8591C81.3352 29.3 81.5733 29.0935 81.5733 28.6806V28.4401ZM87.0261 32.2002H83.6377V27.1721H86.9751V27.9227H84.5631V29.2708H86.4067V30.0141H84.5631V31.4496H87.0261V32.2002ZM88.8898 27.1721V29.2781H89.3052L90.8281 27.1721H91.8483L90.0776 29.6206L92.0086 32.2002H90.9083L89.3052 30.0651H88.8898V32.2002H87.9643V27.1721H88.8898ZM96.8634 29.6643C96.8634 30.5582 96.6715 31.2189 96.2877 31.6464C95.9088 32.069 95.3258 32.2804 94.5388 32.2804C93.7566 32.2804 93.1737 32.069 92.7899 31.6464C92.411 31.2189 92.2215 30.5582 92.2215 29.6643C92.2215 28.7899 92.411 28.1437 92.7899 27.726C93.1737 27.3033 93.7566 27.092 94.5388 27.092C95.3209 27.092 95.9039 27.3033 96.2877 27.726C96.6715 28.1437 96.8634 28.7899 96.8634 29.6643ZM95.9015 29.9412V29.4311C95.9015 28.3624 95.4472 27.828 94.5388 27.828C94.0724 27.828 93.7299 27.9616 93.5113 28.2288C93.2927 28.496 93.1834 28.8967 93.1834 29.4311V29.9412C93.1834 30.4853 93.2903 30.8885 93.504 31.1509C93.7226 31.4132 94.0676 31.5444 94.5388 31.5444C95.01 31.5444 95.3549 31.4132 95.5735 31.1509C95.7922 30.8885 95.9015 30.4853 95.9015 29.9412ZM101.661 30.7719C101.661 31.7241 101.117 32.2002 100.028 32.2002H97.8203V27.1721H99.9482C100.968 27.1721 101.478 27.5899 101.478 28.4255C101.478 28.9939 101.221 29.3704 100.706 29.555C101.342 29.7153 101.661 30.121 101.661 30.7719ZM100.706 30.5752C100.706 30.1623 100.432 29.9558 99.8826 29.9558H98.7385V31.5006H99.8826C100.432 31.5006 100.706 31.2845 100.706 30.8521V30.5752ZM100.524 28.4401C100.524 28.0612 100.286 27.8717 99.8097 27.8717H98.7385V29.3H99.8097C100.286 29.3 100.524 29.0935 100.524 28.6806V28.4401ZM106.997 29.6643C106.997 30.5582 106.805 31.2189 106.421 31.6464C106.042 32.069 105.459 32.2804 104.672 32.2804C103.89 32.2804 103.307 32.069 102.923 31.6464C102.545 31.2189 102.355 30.5582 102.355 29.6643C102.355 28.7899 102.545 28.1437 102.923 27.726C103.307 27.3033 103.89 27.092 104.672 27.092C105.454 27.092 106.037 27.3033 106.421 27.726C106.805 28.1437 106.997 28.7899 106.997 29.6643ZM106.035 29.9412V29.4311C106.035 28.3624 105.581 27.828 104.672 27.828C104.206 27.828 103.863 27.9616 103.645 28.2288C103.426 28.496 103.317 28.8967 103.317 29.4311V29.9412C103.317 30.4853 103.424 30.8885 103.638 31.1509C103.856 31.4132 104.201 31.5444 104.672 31.5444C105.144 31.5444 105.488 31.4132 105.707 31.1509C105.926 30.8885 106.035 30.4853 106.035 29.9412ZM109.71 31.4351C110.176 31.4351 110.516 31.3112 110.73 31.0634C110.944 30.8157 111.051 30.4392 111.051 29.9339V29.4384C111.051 28.938 110.944 28.564 110.73 28.3162C110.516 28.0636 110.176 27.9373 109.71 27.9373H108.879V31.4351H109.71ZM109.71 32.2002H107.954V27.1721H109.71C110.521 27.1721 111.107 27.3786 111.466 27.7915C111.831 28.2045 112.013 28.836 112.013 29.6862C112.013 30.5217 111.831 31.1509 111.466 31.5735C111.102 31.9913 110.516 32.2002 109.71 32.2002ZM118.4 27.9373H116.833V32.2002H115.907V27.9373H114.348V27.1721H118.4V27.9373ZM119.786 27.1721H121.163L122.89 32.2002H121.936L121.499 30.9177H119.429L119.021 32.2002H118.161L119.786 27.1721ZM120.435 27.7988L119.662 30.1963H121.251L120.435 27.7988ZM124.158 27.1721L125.382 28.9939L126.555 27.1721H127.502L125.892 29.6716L127.597 32.2002H126.555L125.302 30.342L124.092 32.2002H123.145L124.799 29.6716L123.116 27.1721H124.158ZM129.289 32.2002H128.363V27.1721H129.289V32.2002ZM133.843 27.828C133.586 27.828 133.391 27.8887 133.26 28.0101C133.134 28.1267 133.059 28.3332 133.034 28.6295H132.072C132.121 27.6045 132.711 27.092 133.843 27.092C134.412 27.092 134.842 27.2086 135.133 27.4418C135.429 27.6749 135.578 28.049 135.578 28.564C135.578 28.904 135.493 29.1906 135.323 29.4238C135.157 29.657 134.953 29.8392 134.71 29.9704C134.468 30.0967 134.222 30.2157 133.974 30.3274C133.732 30.4392 133.515 30.5825 133.326 30.7574C133.141 30.9274 133.037 31.1363 133.013 31.384H135.578V32.2002H132.021V31.7411C132.021 31.4351 132.068 31.163 132.16 30.925C132.257 30.6869 132.381 30.4975 132.532 30.3566C132.687 30.2108 132.855 30.0821 133.034 29.9704C133.219 29.8586 133.404 29.7615 133.588 29.6789C133.773 29.5963 133.94 29.5137 134.091 29.4311C134.246 29.3485 134.37 29.2465 134.463 29.1251C134.56 29.0036 134.608 28.8627 134.608 28.7024V28.4984C134.608 28.0514 134.353 27.828 133.843 27.828ZM137.936 27.1721H139.401V30.2837H140.181V31.0197H139.401V32.2002H138.476V31.0197H135.976V30.393L137.936 27.1721ZM136.923 30.2837H138.476V27.726L136.923 30.2837ZM141.289 32.8925H140.43L142.725 26.8078H143.585L141.289 32.8925ZM143.895 27.9883V27.1721H147.305V27.7988L145.294 32.2002H144.376L146.3 27.9883H143.895Z" fill="black"/>
<path d="M55.5112 14.7084C55.5112 19.3132 52.0484 20.6946 47.02 20.6946C42.0837 20.6946 38.9525 19.479 38.9525 14.0638C38.9525 8.7775 42.1021 7.39608 47.0937 7.39608C51.9563 7.39608 55.0875 8.53806 55.4007 12.2403H50.7406C50.6485 11.0246 49.0829 10.9141 47.0937 10.9141C45.2149 10.9141 43.5941 10.9141 43.5941 13.0139V15.3347C43.5941 17.1766 45.1413 17.1766 47.0384 17.1766C49.2303 17.1766 50.7591 17.1029 50.8696 15.9609H46.7253V13.0876H55.5112V14.7084ZM73.5063 13.898C73.5063 19.4053 70.3934 20.6946 65.0519 20.6946C59.7288 20.6946 56.616 19.4053 56.616 13.898C56.616 8.66699 59.7288 7.39608 65.0519 7.39608C70.375 7.39608 73.5063 8.66699 73.5063 13.898ZM68.8647 14.7453V13.3086C68.8647 11.2825 67.5201 10.9141 65.0519 10.9141C62.6022 10.9141 61.2576 11.2825 61.2576 13.3086V14.7453C61.2576 17.0108 62.6022 17.1766 65.0519 17.1766C67.5201 17.1766 68.8647 17.0108 68.8647 14.7453Z" fill="black"/>
<path d="M85.0469 10.2879H81.271V20.3999H78.195V10.2879H74.4192V7.69078H85.0469V10.2879ZM98.3023 13.9164C98.3023 18.8711 96.1288 20.6393 92.0582 20.6393C87.9876 20.6393 85.8326 18.8711 85.8326 13.9164C85.8326 9.18272 87.9876 7.45133 92.0582 7.45133C96.1288 7.45133 98.3023 9.18272 98.3023 13.9164ZM95.1342 14.8189V13.2533C95.1342 10.8773 94.1396 9.90106 92.0582 9.90106C89.9769 9.90106 89.0007 10.8773 89.0007 13.2533V14.8189C89.0007 17.3423 89.9769 18.1896 92.0582 18.1896C94.1396 18.1896 95.1342 17.3423 95.1342 14.8189ZM110.491 16.5687C110.491 19.4605 108.557 20.6393 105.242 20.6393C101.853 20.6393 99.9188 19.4605 99.7899 16.4398H102.958C103.013 17.8765 103.842 18.2449 105.224 18.2449C106.623 18.2449 107.471 17.8949 107.471 16.7529C107.471 13.9532 100.011 16.7345 100.011 11.3009C100.011 8.64857 101.908 7.45133 105.039 7.45133C108.152 7.45133 110.16 8.53806 110.252 11.3009H107.084C106.992 10.1405 106.218 9.84581 105.039 9.84581C103.787 9.84581 103.013 10.2142 103.013 11.2641C103.013 13.898 110.491 11.393 110.491 16.5687ZM123.332 20.3999H120.256V15.2242H115.596V20.3999H112.52V7.69078H115.596V12.6271H120.256V7.69078H123.332V20.3999ZM128.978 7.69078V12.6823H129.789L133.362 7.69078H136.659L132.312 13.8059L137.046 20.3999H133.454L129.77 15.2978H128.978V20.3999H125.902V7.69078H128.978ZM147.666 20.3999H138.494V7.69078H147.593V10.2142H141.57V12.6639H146.101V15.1321H141.57V17.8765H147.666V20.3999ZM153.953 7.69078L158.024 16.5319V7.69078H160.897V20.3999H156.679L152.609 11.5772V20.3999H149.754V7.69078H153.953ZM173.167 10.2879H169.391V20.3999H166.315V10.2879H162.539V7.69078H173.167V10.2879Z" fill="#FF7625"/>
<path d="M13.7445 0.0773277C11.0255 0.366848 8.09608 1.5175 5.91462 3.15069C2.88395 5.4223 0.975172 8.45112 0.172707 12.2446C0.0168883 13.0018 -0.00648447 13.3061 0.00130646 14.9171C0.00130646 16.6022 0.0168883 16.8101 0.219452 17.738C0.733654 20.1284 1.77764 22.2961 3.32803 24.1965C3.54618 24.4638 6.38987 27.2253 9.64648 30.3432L15.5754 36L21.1303 30.7144C24.1843 27.8044 26.9813 25.1022 27.3319 24.7162C29.4276 22.4446 30.7209 19.6459 31.1183 16.5502C31.313 15.021 31.1494 12.7791 30.7365 11.235C29.2796 5.78605 24.8154 1.62143 19.1047 0.366848C17.5387 0.0253639 15.3416 -0.0934143 13.7445 0.0773277ZM17.8737 3.81139C20.0785 4.24938 22.1509 5.28868 23.7714 6.78081C25.4776 8.33977 26.5294 10.062 27.0904 12.2074C27.1994 12.6157 27.3007 13.0686 27.3163 13.2096C27.3397 13.4472 27.3241 13.4695 27.067 13.5288C26.919 13.566 26.3191 13.5957 25.7425 13.5957C24.8544 13.6031 24.5739 13.5734 23.935 13.4101C23.0157 13.1799 21.8471 12.6232 21.0134 12.0144C20.6784 11.7769 20.0474 11.3166 19.6111 10.9974C16.2921 8.58474 14.5392 8.68867 10.8229 11.5096C8.96866 12.9127 7.62083 13.4917 5.86788 13.6179C5.2446 13.6699 3.95131 13.5585 3.83444 13.4472C3.75653 13.3729 3.96689 12.4005 4.24736 11.5393C4.83168 9.75767 5.71985 8.36946 7.19233 6.9664C9.04657 5.19959 11.2125 4.1306 13.7055 3.74457C14.6015 3.61095 17.0245 3.64807 17.8737 3.81139ZM6.54569 16.3943C6.88849 16.476 7.40269 16.6171 7.67537 16.7061C9.87241 17.4262 11.9214 19.1559 13.0044 21.1974C13.6744 22.4742 13.9471 23.5135 14.025 25.0651C14.0873 26.238 14.1107 26.2083 13.168 26.0153C12.1006 25.8 11.3371 25.5402 10.2775 25.0502C6.97419 23.4987 4.57458 20.4773 3.89677 17.0031C3.70979 16.0677 3.60851 16.1494 4.84726 16.2013C5.51728 16.231 6.14835 16.2978 6.54569 16.3943ZM27.3475 16.528C27.254 17.1441 26.9034 18.421 26.6619 19C25.3841 22.0734 22.8677 24.4341 19.6656 25.555C18.7774 25.8668 17.4062 26.1712 17.2115 26.097C17.079 26.0524 17.0712 25.9708 17.118 25.0651C17.1803 23.8922 17.3673 22.9939 17.7412 22.0734C18.271 20.7594 19.019 19.6978 20.0785 18.7253C21.8626 17.0922 24.1298 16.2013 26.5528 16.1865L27.3942 16.1791L27.3475 16.528Z" fill="#FF7625"/>
</svg>
