<svg width="196" height="40" viewBox="0 0 196 40" fill="none" xmlns="http://www.w3.org/2000/svg">
<path d="M50.7377 30.1658H48.9969V34.9023H47.9686V30.1658H46.2359V29.3156H50.7377V30.1658ZM56.3015 32.0847C56.3015 33.0779 56.0883 33.812 55.6619 34.287C55.2408 34.7566 54.5931 34.9914 53.7187 34.9914C52.8496 34.9914 52.2019 34.7566 51.7754 34.287C51.3544 33.812 51.1439 33.0779 51.1439 32.0847C51.1439 31.1131 51.3544 30.3952 51.7754 29.931C52.2019 29.4614 52.8496 29.2266 53.7187 29.2266C54.5877 29.2266 55.2354 29.4614 55.6619 29.931C56.0883 30.3952 56.3015 31.1131 56.3015 32.0847ZM55.2327 32.3924V31.8256C55.2327 30.6381 54.728 30.0443 53.7187 30.0443C53.2005 30.0443 52.8199 30.1928 52.577 30.4896C52.3341 30.7865 52.2127 31.2318 52.2127 31.8256V32.3924C52.2127 32.9969 52.3314 33.4449 52.5689 33.7364C52.8118 34.0279 53.1951 34.1736 53.7187 34.1736C54.2422 34.1736 54.6255 34.0279 54.8684 33.7364C55.1113 33.4449 55.2327 32.9969 55.2327 32.3924ZM61.5184 33.3559C61.5184 33.9011 61.3295 34.3113 60.9517 34.5866C60.5792 34.8565 60.0448 34.9914 59.3485 34.9914C58.6144 34.9914 58.0585 34.8538 57.6806 34.5785C57.3082 34.2978 57.1057 33.8552 57.0734 33.2506H58.1421C58.1637 33.5907 58.269 33.8309 58.4579 33.9712C58.6522 34.1116 58.9464 34.1817 59.3404 34.1817C60.0961 34.1817 60.474 33.9199 60.474 33.3964C60.474 33.1912 60.4119 33.0266 60.2877 32.9025C60.169 32.7729 60.0125 32.6811 59.8181 32.6272C59.6292 32.5678 59.416 32.5192 59.1785 32.4814C58.9464 32.4436 58.7116 32.3951 58.4741 32.3357C58.242 32.2709 58.0288 32.1872 57.8344 32.0847C57.6401 31.9821 57.4809 31.8229 57.3567 31.607C57.238 31.3911 57.1786 31.1212 57.1786 30.7973C57.1786 30.2953 57.3594 29.9094 57.7211 29.6395C58.0827 29.3642 58.5901 29.2266 59.2433 29.2266C60.6305 29.2266 61.3511 29.7501 61.4051 30.7973H60.3363C60.3093 30.5166 60.2041 30.3196 60.0206 30.2063C59.8424 30.0929 59.5833 30.0362 59.2433 30.0362C58.5631 30.0362 58.2231 30.2872 58.2231 30.7892C58.2231 30.9835 58.2825 31.1401 58.4012 31.2588C58.5254 31.3722 58.6846 31.4558 58.8789 31.5098C59.0732 31.5638 59.2865 31.6124 59.5186 31.6556C59.7561 31.6933 59.9909 31.7446 60.223 31.8094C60.4551 31.8688 60.6683 31.9524 60.8626 32.0604C61.0569 32.163 61.2135 32.3249 61.3322 32.5462C61.4564 32.7675 61.5184 33.0374 61.5184 33.3559ZM66.9564 34.9023H65.9281V32.4895H63.5801V34.9023H62.5518V29.3156H63.5801V31.6394H65.9281V29.3156H66.9564V34.9023ZM69.3126 29.3156V31.6556H69.7741L71.4663 29.3156H72.5999L70.6324 32.0361L72.778 34.9023H71.5554L69.7741 32.53H69.3126V34.9023H68.2843V29.3156H69.3126ZM77.339 34.9023H73.5741V29.3156H77.2824V30.1496H74.6023V31.6475H76.6508V32.4733H74.6023V34.0684H77.339V34.9023ZM79.766 29.3156L81.9036 33.5907V29.3156H82.8671V34.9023H81.4825L79.345 30.6273V34.9023H78.3815V29.3156H79.766ZM88.1929 30.1658H86.4521V34.9023H85.4238V30.1658H83.6911V29.3156H88.1929V30.1658ZM95.3075 33.3154C95.3075 34.3734 94.7029 34.9023 93.4938 34.9023H91.0405V29.3156H93.4047C94.5383 29.3156 95.105 29.7798 95.105 30.7082C95.105 31.3398 94.819 31.7581 94.2468 31.9632C94.9539 32.1414 95.3075 32.5921 95.3075 33.3154ZM94.2468 33.0968C94.2468 32.638 93.9418 32.4086 93.3319 32.4086H92.0607V34.1251H93.3319C93.9418 34.1251 94.2468 33.8849 94.2468 33.4045V33.0968ZM94.0444 30.7244C94.0444 30.3034 93.7799 30.0929 93.2509 30.0929H92.0607V31.6799H93.2509C93.7799 31.6799 94.0444 31.4504 94.0444 30.9916V30.7244ZM100.103 34.9023H96.3382V29.3156H100.046V30.1496H97.3664V31.6475H99.4149V32.4733H97.3664V34.0684H100.103V34.9023ZM102.174 29.3156V31.6556H102.635L104.328 29.3156H105.461L103.494 32.0361L105.639 34.9023H104.417L102.635 32.53H102.174V34.9023H101.146V29.3156H102.174ZM111.033 32.0847C111.033 33.0779 110.82 33.812 110.394 34.287C109.973 34.7566 109.325 34.9914 108.451 34.9914C107.581 34.9914 106.934 34.7566 106.507 34.287C106.086 33.812 105.876 33.0779 105.876 32.0847C105.876 31.1131 106.086 30.3952 106.507 29.931C106.934 29.4614 107.581 29.2266 108.451 29.2266C109.32 29.2266 109.967 29.4614 110.394 29.931C110.82 30.3952 111.033 31.1131 111.033 32.0847ZM109.965 32.3924V31.8256C109.965 30.6381 109.46 30.0443 108.451 30.0443C107.932 30.0443 107.552 30.1928 107.309 30.4896C107.066 30.7865 106.945 31.2318 106.945 31.8256V32.3924C106.945 32.9969 107.063 33.4449 107.301 33.7364C107.544 34.0279 107.927 34.1736 108.451 34.1736C108.974 34.1736 109.357 34.0279 109.6 33.7364C109.843 33.4449 109.965 32.9969 109.965 32.3924ZM116.364 33.3154C116.364 34.3734 115.759 34.9023 114.55 34.9023H112.097V29.3156H114.461C115.594 29.3156 116.161 29.7798 116.161 30.7082C116.161 31.3398 115.875 31.7581 115.303 31.9632C116.01 32.1414 116.364 32.5921 116.364 33.3154ZM115.303 33.0968C115.303 32.638 114.998 32.4086 114.388 32.4086H113.117V34.1251H114.388C114.998 34.1251 115.303 33.8849 115.303 33.4045V33.0968ZM115.101 30.7244C115.101 30.3034 114.836 30.0929 114.307 30.0929H113.117V31.6799H114.307C114.836 31.6799 115.101 31.4504 115.101 30.9916V30.7244ZM122.293 32.0847C122.293 33.0779 122.08 33.812 121.653 34.287C121.232 34.7566 120.584 34.9914 119.71 34.9914C118.841 34.9914 118.193 34.7566 117.767 34.287C117.346 33.812 117.135 33.0779 117.135 32.0847C117.135 31.1131 117.346 30.3952 117.767 29.931C118.193 29.4614 118.841 29.2266 119.71 29.2266C120.579 29.2266 121.227 29.4614 121.653 29.931C122.08 30.3952 122.293 31.1131 122.293 32.0847ZM121.224 32.3924V31.8256C121.224 30.6381 120.719 30.0443 119.71 30.0443C119.192 30.0443 118.811 30.1928 118.568 30.4896C118.325 30.7865 118.204 31.2318 118.204 31.8256V32.3924C118.204 32.9969 118.323 33.4449 118.56 33.7364C118.803 34.0279 119.186 34.1736 119.71 34.1736C120.234 34.1736 120.617 34.0279 120.86 33.7364C121.103 33.4449 121.224 32.9969 121.224 32.3924ZM125.307 34.0522C125.826 34.0522 126.204 33.9145 126.441 33.6393C126.679 33.364 126.797 32.9456 126.797 32.3843V31.8337C126.797 31.2777 126.679 30.8621 126.441 30.5868C126.204 30.3061 125.826 30.1658 125.307 30.1658H124.384V34.0522H125.307ZM125.307 34.9023H123.356V29.3156H125.307C126.209 29.3156 126.859 29.545 127.259 30.0038C127.664 30.4626 127.866 31.1644 127.866 32.109C127.866 33.0374 127.664 33.7364 127.259 34.206C126.854 34.6702 126.204 34.9023 125.307 34.9023ZM134.962 30.1658H133.222V34.9023H132.193V30.1658H130.461V29.3156H134.962V30.1658ZM136.503 29.3156H138.033L139.952 34.9023H138.892L138.406 33.4773H136.106L135.653 34.9023H134.698L136.503 29.3156ZM137.224 30.0119L136.366 32.6757H138.131L137.224 30.0119ZM141.36 29.3156L142.721 31.3398L144.024 29.3156H145.077L143.287 32.0928L145.182 34.9023H144.024L142.632 32.8377L141.288 34.9023H140.235L142.073 32.0928L140.203 29.3156H141.36ZM147.062 34.9023H146.033V29.3156H147.062V34.9023ZM152.122 30.0443C151.836 30.0443 151.62 30.1118 151.474 30.2467C151.334 30.3763 151.25 30.6057 151.223 30.935H150.155C150.209 29.796 150.864 29.2266 152.122 29.2266C152.754 29.2266 153.231 29.3561 153.555 29.6152C153.885 29.8743 154.049 30.2899 154.049 30.8621C154.049 31.2399 153.955 31.5584 153.766 31.8175C153.582 32.0766 153.356 32.279 153.086 32.4248C152.816 32.5651 152.543 32.6973 152.268 32.8215C151.998 32.9456 151.758 33.1049 151.547 33.2992C151.342 33.4881 151.226 33.7202 151.199 33.9955H154.049V34.9023H150.098V34.3923C150.098 34.0522 150.149 33.7499 150.252 33.4854C150.36 33.2209 150.497 33.0104 150.665 32.8539C150.837 32.6919 151.024 32.5489 151.223 32.4248C151.429 32.3006 151.634 32.1926 151.839 32.1009C152.044 32.0091 152.23 31.9174 152.397 31.8256C152.57 31.7338 152.708 31.6205 152.81 31.4855C152.918 31.3506 152.972 31.1941 152.972 31.0159V30.7892C152.972 30.2926 152.689 30.0443 152.122 30.0443ZM156.67 29.3156H158.297V32.7729H159.164V33.5907H158.297V34.9023H157.269V33.5907H154.492V32.8944L156.67 29.3156ZM155.545 32.7729H157.269V29.931L155.545 32.7729ZM160.396 35.6715H159.44L161.991 28.9108H162.946L160.396 35.6715ZM163.291 30.2224V29.3156H167.08V30.0119L164.845 34.9023H163.825L165.963 30.2224H163.291Z" fill="white"/>
<path d="M63.2217 16.3431C63.2217 21.4595 59.3742 22.9944 53.7871 22.9944C48.3023 22.9944 44.8232 21.6437 44.8232 15.6268C44.8232 9.75321 48.3228 8.2183 53.869 8.2183C59.2719 8.2183 62.751 9.48716 63.099 13.6007H57.9212C57.8188 12.25 56.0793 12.1272 53.869 12.1272C51.7815 12.1272 49.9805 12.1272 49.9805 14.4603V17.039C49.9805 19.0855 51.6996 19.0855 53.8076 19.0855C56.243 19.0855 57.9416 19.0037 58.0644 17.7348H53.4597V14.5422H63.2217V16.3431ZM83.2163 15.4426C83.2163 21.5619 79.7576 22.9944 73.8226 22.9944C67.908 22.9944 64.4494 21.5619 64.4494 15.4426C64.4494 9.63042 67.908 8.2183 73.8226 8.2183C79.7371 8.2183 83.2163 9.63042 83.2163 15.4426ZM78.059 16.3841V14.7877C78.059 12.5365 76.565 12.1272 73.8226 12.1272C71.1007 12.1272 69.6067 12.5365 69.6067 14.7877V16.3841C69.6067 18.9013 71.1007 19.0855 73.8226 19.0855C76.565 19.0855 78.059 18.9013 78.059 16.3841Z" fill="white"/>
<path d="M96.0393 11.4314H91.8438V22.667H88.4261V11.4314H84.2306V8.54574H96.0393V11.4314ZM110.767 15.4631C110.767 20.9683 108.352 22.933 103.83 22.933C99.3067 22.933 96.9122 20.9683 96.9122 15.4631C96.9122 10.2035 99.3067 8.27969 103.83 8.27969C108.352 8.27969 110.767 10.2035 110.767 15.4631ZM107.247 16.4659V14.7263C107.247 12.0863 106.142 11.0016 103.83 11.0016C101.517 11.0016 100.432 12.0863 100.432 14.7263V16.4659C100.432 19.2697 101.517 20.2111 103.83 20.2111C106.142 20.2111 107.247 19.2697 107.247 16.4659ZM124.311 18.4102C124.311 21.6232 122.162 22.933 118.478 22.933C114.712 22.933 112.564 21.6232 112.42 18.2669H115.94C116.002 19.8632 116.923 20.2725 118.458 20.2725C120.013 20.2725 120.954 19.8837 120.954 18.6148C120.954 15.504 112.666 18.5943 112.666 12.557C112.666 9.60996 114.774 8.27969 118.253 8.27969C121.712 8.27969 123.942 9.48716 124.045 12.557H120.525C120.422 11.2677 119.563 10.9402 118.253 10.9402C116.861 10.9402 116.002 11.3495 116.002 12.5161C116.002 15.4426 124.311 12.6593 124.311 18.4102ZM138.578 22.667H135.16V16.9162H129.983V22.667H126.565V8.54574H129.983V14.0305H135.16V8.54574H138.578V22.667ZM144.852 8.54574V14.0919H145.753L149.723 8.54574H153.386L148.556 15.3403L153.816 22.667H149.825L145.732 16.998H144.852V22.667H141.434V8.54574H144.852ZM165.616 22.667H155.424V8.54574H165.534V11.3495H158.842V14.0715H163.877V16.8138H158.842V19.8632H165.616V22.667ZM172.602 8.54574L177.125 18.3692V8.54574H180.317V22.667H175.631L171.108 12.864V22.667H167.936V8.54574H172.602ZM193.95 11.4314H189.755V22.667H186.337V11.4314H182.142V8.54574H193.95V11.4314Z" fill="#FF7625"/>
<path d="M15.2717 0.0859206C12.2505 0.407609 8.99564 1.68611 6.5718 3.50076C3.20439 6.02478 1.08352 9.39013 0.191897 13.6051C0.0187648 14.4464 -0.00720497 14.7846 0.00145162 16.5745C0.00145162 18.4469 0.0187648 18.6778 0.243836 19.7089C0.815171 22.3649 1.97515 24.7734 3.69781 26.885C3.9402 27.182 7.09985 30.2504 10.7183 33.7147L17.306 40L23.4781 34.1271C26.8715 30.8938 29.9792 27.8913 30.3688 27.4624C32.6974 24.9384 34.1344 21.8287 34.5759 18.3892C34.7923 16.69 34.6105 14.199 34.1517 12.4833C32.5329 6.42895 27.5727 1.80159 21.2274 0.407609C19.4874 0.0281817 17.0463 -0.103793 15.2717 0.0859206ZM19.8597 4.23487C22.3095 4.72153 24.6121 5.87631 26.4127 7.53424C28.3085 9.26641 29.4771 11.18 30.1004 13.5638C30.2216 14.0175 30.3341 14.5206 30.3514 14.6774C30.3774 14.9413 30.3601 14.9661 30.0744 15.032C29.91 15.0733 29.2434 15.1063 28.6028 15.1063C27.616 15.1145 27.3043 15.0815 26.5945 14.9001C25.573 14.6444 24.2745 14.0257 23.3483 13.3494C22.976 13.0854 22.2748 12.574 21.7901 12.2193C18.1024 9.5386 16.1546 9.65408 12.0255 12.7885C9.96518 14.3474 8.46759 14.9908 6.51986 15.131C5.82733 15.1888 4.39034 15.065 4.26049 14.9413C4.17393 14.8588 4.40765 13.7783 4.71929 12.8215C5.36854 10.8419 6.35539 9.2994 7.99148 7.74045C10.0517 5.77733 12.4583 4.58956 15.2284 4.16064C16.2239 4.01217 18.9161 4.05341 19.8597 4.23487ZM7.27298 18.2159C7.65387 18.3067 8.22521 18.4634 8.52819 18.5624C10.9693 19.3625 13.246 21.2843 14.4493 23.5527C15.1938 24.9714 15.4967 26.1262 15.5833 27.8501C15.6526 29.1533 15.6785 29.1203 14.6311 28.9059C13.4451 28.6667 12.5968 28.378 11.4195 27.8336C7.7491 26.1097 5.08287 22.7526 4.32974 18.8923C4.12199 17.853 4.00945 17.9437 5.38585 18.0015C6.13031 18.0345 6.8315 18.1087 7.27298 18.2159ZM30.3861 18.3644C30.2822 19.049 29.8926 20.4678 29.6243 21.1111C28.2046 24.526 25.4085 27.149 21.8507 28.3945C20.8638 28.7409 19.3403 29.0791 19.1239 28.9966C18.9767 28.9471 18.968 28.8564 19.02 27.8501C19.0892 26.5468 19.297 25.5488 19.7125 24.526C20.3011 23.066 21.1322 21.8865 22.3095 20.8059C24.2918 18.9913 26.8109 18.0015 29.5031 17.985L30.438 17.9767L30.3861 18.3644Z" fill="#FF7625"/>
</svg>
