<svg width="254" height="226" viewBox="0 0 254 226" fill="none" xmlns="http://www.w3.org/2000/svg">
<path d="M232.792 184.109C234.756 172.816 253.412 151.213 248.013 137.957C242.614 124.7 229.351 166.912 224.44 167.417C219.529 167.922 223.952 148.267 230.827 129.611C237.703 110.954 243.102 91.3104 230.827 83.9467C218.552 76.583 219.041 135.01 216.094 133.046C213.148 131.081 218.059 106.532 214.624 91.3104C211.189 76.0891 203.331 88.3638 203.331 106.072C203.331 123.78 208.73 133.568 204.802 135.027C200.873 136.486 188.82 130.996 189.092 150.248C189.365 169.501 204.313 192.477 198.908 189.531C193.503 186.584 183.687 175.292 185.651 193.46C187.042 206.302 197.006 218.645 202.741 224.782H228.993C232.996 220.666 240.774 211.991 246.026 201.806C253.412 187.549 230.827 195.407 232.792 184.109Z" fill="#FF7625"/>
<path d="M200.873 223.635C196.013 216.669 193.742 208.153 191.471 200.204C190.335 195.095 190.335 189.417 194.309 186.011C198.284 183.172 200.555 188.282 202.826 190.553C204.529 189.417 203.393 187.714 203.393 186.578C202.261 177.539 201.692 168.437 201.69 159.327C201.69 153.649 203.961 149.107 206.232 143.997C207.368 142.294 208.503 140.591 210.206 140.023C211.91 139.455 213.613 140.023 214.181 141.726C215.316 145.701 215.316 149.675 215.884 153.649C217.019 152.514 216.452 150.81 216.452 149.675C218.723 133.21 217.019 117.313 222.129 101.416C222.697 100.281 224.4 99.1453 225.536 99.713C229.51 100.281 229.51 105.391 229.51 108.797C231.781 125.262 226.671 141.159 224.968 157.623C224.968 158.759 224.4 159.894 225.536 161.03C226.103 157.056 228.374 153.081 229.51 149.107C230.078 147.404 231.213 145.133 232.916 143.997C234.052 143.43 235.187 143.997 236.323 145.133C238.594 148.539 239.161 151.946 238.594 155.92C236.891 165.572 233.484 173.52 229.51 182.036L227.807 187.146C227.239 190.553 224.968 194.527 227.239 197.366C231.213 196.798 232.349 192.256 235.755 189.985C239.161 187.714 240.297 190.553 240.865 192.824C243.136 204.179 239.162 214.398 233.439 223.613" stroke="#263238" stroke-linecap="round" stroke-linejoin="round"/>
<path d="M216.775 221.467C216.775 221.467 215.452 194.936 218.768 170.733" stroke="#263238" stroke-linecap="round" stroke-linejoin="round"/>
<path d="M205.835 204.553L216.775 216.493L226.393 208.198" stroke="#263238" stroke-linecap="round" stroke-linejoin="round"/>
<path d="M213.789 174.713L216.775 189.962L225.4 174.713" stroke="#263238" stroke-linecap="round" stroke-linejoin="round"/>
<path d="M219.098 166.753L221.085 152.497" stroke="#263238" stroke-linecap="round" stroke-linejoin="round"/>
<path d="M61.9394 50.4949H26.1826V95.1937H61.9394V50.4949Z" stroke="#263238" stroke-linecap="round" stroke-linejoin="round"/>
<path d="M106.639 50.4949H70.8818V95.1937H106.639V50.4949Z" stroke="#263238" stroke-linecap="round" stroke-linejoin="round"/>
<path d="M61.9394 102.506H26.1826V147.205H61.9394V102.506Z" stroke="#263238" stroke-linecap="round" stroke-linejoin="round"/>
<path d="M106.639 102.506H70.8818V147.205H106.639V102.506Z" stroke="#263238" stroke-linecap="round" stroke-linejoin="round"/>
<path d="M61.9394 154.518H26.1826V199.216H61.9394V154.518Z" stroke="#263238" stroke-linecap="round" stroke-linejoin="round"/>
<path d="M106.639 154.518H70.8818V199.216H106.639V154.518Z" stroke="#263238" stroke-linecap="round" stroke-linejoin="round"/>
<path d="M66.816 4.17236C56.2546 4.17236 46.1257 8.36786 38.6577 15.8359C31.1896 23.304 26.9941 33.4328 26.9941 43.9942H106.638C106.638 33.4328 102.442 23.304 94.9743 15.8359C87.5062 8.36786 77.3774 4.17236 66.816 4.17236Z" stroke="#263238" stroke-linecap="round" stroke-linejoin="round"/>
<path d="M118.317 25.5196C118.317 25.5196 118.317 17.0034 103.698 18.7067C89.0784 20.4099 82.9524 33.3262 78.5354 36.0457C74.1183 38.7652 65.9541 41.1554 65.6134 45.2262C65.2728 49.2969 69.0199 51.0059 65.2728 54.066C61.5256 57.1262 55.78 59.8627 57.1142 63.9448C58.4484 68.0269 62.224 72.1034 60.5207 74.8286C58.8175 77.5537 54.0597 80.2676 58.4768 83.3448C62.8939 86.422 64.9378 87.0862 64.9378 91.1627C64.9378 95.2391 63.2346 97.9756 67.3223 99.3269C71.4101 100.678 73.7776 97.9643 76.1622 103.063C78.5467 108.161 80.9199 109.524 85.002 108.502C89.0841 107.48 94.8581 105.782 96.9247 107.145C98.9913 108.507 105.441 112.254 108.143 110.205C110.846 108.155 113.253 105.095 117.324 106.798C121.395 108.502 124.807 110.881 126.504 107.82C128.202 104.76 126.504 104.079 132.965 102.711C139.426 101.342 141.805 101.694 141.805 96.2554C141.805 90.8163 141.465 89.4424 144.525 87.0749C147.585 84.7074 150.304 85.7123 149.288 79.9326C148.272 74.1529 146.228 72.7903 147.244 67.0107C148.26 61.231 145.541 59.1928 143.503 57.4895C141.465 55.7863 139.086 52.7318 139.767 49.6716C140.448 46.6115 145.547 46.2651 140.443 40.8318C135.339 35.3985 132.965 37.0903 131.926 33.0082C130.887 28.9261 127.498 20.0806 118.317 25.5196Z" fill="#263238" stroke="#263238" stroke-linecap="round" stroke-linejoin="round"/>
<path d="M105.265 35.7561C103.17 39.0718 101.552 42.8132 98.1793 45.9756C93.308 50.5176 80.8289 54.4918 80.2214 58.7612C79.6139 63.0307 81.743 65.455 77.4849 69.1056C73.2268 72.7562 66.5273 73.6476 66.5273 77.3266C66.5273 81.0056 68.3498 82.1979 67.4414 84.9344" stroke="#616161" stroke-miterlimit="10"/>
<path d="M114.315 31.6684C114.315 31.6684 112.793 27.6942 108.53 31.6684C108.2 31.975 107.888 32.2929 107.593 32.6166" stroke="#616161" stroke-miterlimit="10"/>
<path d="M79.9322 49.0642C76.1851 49.9726 73.2271 50.6255 72.9205 53.2826C72.3074 58.4548 73.2215 61.7988 69.5708 63.326C65.9202 64.8533 61.0546 67.3003 62.5705 70.3264C64.0864 73.3525 64.393 74.3006 64.0921 75.4986" stroke="#616161" stroke-miterlimit="10"/>
<path d="M113.69 26.7971C113.69 26.7971 105.174 21.324 100.632 26.1896C96.09 31.0552 98.1963 37.1471 91.196 43.8465C89.4181 45.502 87.3197 46.7754 85.0303 47.588" stroke="#616161" stroke-miterlimit="10"/>
<path d="M143.31 69.9629C143.82 70.7561 144.526 71.405 145.359 71.8478" stroke="#616161" stroke-miterlimit="10"/>
<path d="M119.793 34.422C119.793 34.422 127.401 31.9863 129.223 36.2444C131.046 40.5025 131.965 48.116 135.315 49.3367C138.665 50.5574 140.181 52.3798 140.181 59.0736C140.177 61.231 140.498 63.3766 141.135 65.438" stroke="#616161" stroke-miterlimit="10"/>
<path d="M70.4844 88.5852C72.92 84.611 76.264 86.1552 76.5706 81.8915C76.8772 77.6277 74.4416 76.4127 76.8715 73.6761C79.3015 70.9396 83.2644 69.7019 83.2644 69.7019" stroke="#616161" stroke-miterlimit="10"/>
<path d="M73.8281 97.1126C72.7035 96.1813 71.7272 95.0844 70.9326 93.8594" stroke="#616161" stroke-miterlimit="10"/>
<path d="M158.099 224.765C158.099 224.765 159.115 210.827 152.989 196.883C146.863 182.939 145.484 181.934 145.484 177.852C145.484 173.77 149.583 169.007 150.264 159.826C150.945 150.646 150.605 146.2 150.605 146.2C150.605 146.2 165.224 169.319 175.427 170.682C185.629 172.044 191.749 162.523 188.008 149.601C184.267 136.679 167.944 126.142 161.488 117.637C155.033 109.132 140.402 109.121 132.925 109.121C125.448 109.121 121.706 106.401 120.344 101.303C118.981 96.2044 118.987 85.9735 118.987 85.9735C118.987 85.9735 110.141 91.4126 95.1812 85.2922C95.1812 85.2922 96.5438 103.994 94.8405 106.713C93.1373 109.433 90.7755 112.203 80.573 112.203C70.3706 112.203 61.8714 114.247 57.1137 119.016C52.356 123.786 32.6324 142.816 27.534 150.299C22.4356 157.782 25.1495 165.941 31.2698 169.001C37.3901 172.061 43.5105 169.336 47.9332 165.26C52.356 161.183 66.2942 148.255 66.2942 148.255C66.2942 148.255 66.2942 156.079 70.0356 167.298C73.7771 178.516 76.8486 177.16 74.1121 185.318C71.3755 193.477 65.9535 195.861 64.256 206.399C63.2392 212.464 62.783 218.61 62.8934 224.76" fill="#FF7625"/>
<mask id="mask0_135_1819" style="mask-type:luminance" maskUnits="userSpaceOnUse" x="24" y="85" width="166" height="140">
<path d="M158.099 224.765C158.099 224.765 159.115 210.827 152.989 196.883C146.863 182.939 145.484 181.934 145.484 177.852C145.484 173.77 149.583 169.007 150.264 159.826C150.945 150.646 150.605 146.2 150.605 146.2C150.605 146.2 165.224 169.319 175.427 170.682C185.629 172.044 191.749 162.523 188.008 149.601C184.267 136.679 167.944 126.142 161.488 117.637C155.033 109.132 140.402 109.121 132.925 109.121C125.448 109.121 121.706 106.401 120.344 101.303C118.981 96.2044 118.987 85.9735 118.987 85.9735C118.987 85.9735 110.141 91.4126 95.1812 85.2922C95.1812 85.2922 96.5438 103.994 94.8405 106.713C93.1373 109.433 90.7755 112.203 80.573 112.203C70.3706 112.203 61.8714 114.247 57.1137 119.016C52.356 123.786 32.6324 142.816 27.534 150.299C22.4356 157.782 25.1495 165.941 31.2698 169.001C37.3901 172.061 43.5105 169.336 47.9332 165.26C52.356 161.183 66.2942 148.255 66.2942 148.255C66.2942 148.255 66.2942 156.079 70.0356 167.298C73.7771 178.516 76.8486 177.16 74.1121 185.318C71.3755 193.477 65.9535 195.861 64.256 206.399C63.2392 212.464 62.783 218.61 62.8934 224.76" fill="white"/>
</mask>
<g mask="url(#mask0_135_1819)">
<g opacity="0.2">
<path d="M135.786 119.783C135.553 119.783 134.702 120.35 135.786 122.003C136.87 120.362 136.019 119.783 135.786 119.783Z" fill="black"/>
<path d="M163.038 119.783C162.805 119.783 161.954 120.35 163.038 122.003C164.122 120.362 163.271 119.783 163.038 119.783Z" fill="black"/>
<path d="M163.038 133.409C162.805 133.409 161.954 133.976 163.038 135.629C164.122 133.988 163.271 133.409 163.038 133.409Z" fill="black"/>
<path d="M135.786 133.409C135.553 133.409 134.702 133.976 135.786 135.629C136.87 133.988 136.019 133.409 135.786 133.409Z" fill="black"/>
<path d="M149.412 126.596C149.179 126.596 148.328 127.163 149.412 128.816C150.496 127.175 149.645 126.596 149.412 126.596Z" fill="black"/>
<path d="M149.412 112.97C149.179 112.97 148.328 113.537 149.412 115.19C150.496 113.549 149.645 112.97 149.412 112.97Z" fill="black"/>
<path d="M136.399 122.343C138.364 122.451 138.432 121.424 138.318 121.208C138.205 120.992 137.245 120.578 136.399 122.343Z" fill="black"/>
<path d="M165.315 121.952L164.56 121.174C164.146 121.468 163.823 121.874 163.629 122.343C164.221 122.441 164.827 122.3 165.315 121.952Z" fill="black"/>
<path d="M150.025 129.156C151.99 129.264 152.058 128.237 151.944 128.021C151.831 127.805 150.871 127.391 150.025 129.156Z" fill="black"/>
<path d="M150.025 115.53C151.99 115.638 152.058 114.611 151.944 114.395C151.831 114.179 150.871 113.765 150.025 115.53Z" fill="black"/>
<path d="M160.528 121.225C160.415 121.424 160.489 122.451 162.447 122.36C161.579 120.578 160.648 121.021 160.528 121.225Z" fill="black"/>
<path d="M160.528 134.851C160.489 134.995 160.496 135.148 160.549 135.288C160.602 135.428 160.698 135.547 160.824 135.629C161.307 135.933 161.883 136.054 162.447 135.969C162.394 135.852 162.333 135.738 162.266 135.629C161.454 134.266 160.642 134.658 160.528 134.851Z" fill="black"/>
<path d="M146.902 128.038C146.789 128.237 146.863 129.264 148.821 129.173C147.953 127.391 147.022 127.834 146.902 128.038Z" fill="black"/>
<path d="M146.902 114.412C146.789 114.611 146.863 115.638 148.821 115.547C147.953 113.765 147.022 114.208 146.902 114.412Z" fill="black"/>
<path d="M135.786 160.661C135.553 160.661 134.702 161.228 135.786 162.881C136.87 161.24 136.019 160.661 135.786 160.661Z" fill="black"/>
<path d="M163.038 160.661C162.867 160.661 162.379 160.967 162.532 161.756C162.771 162.012 163.009 162.267 163.253 162.517C163.991 161.155 163.253 160.661 163.038 160.661Z" fill="black"/>
<path d="M135.786 174.287C135.553 174.287 134.702 174.854 135.786 176.507C136.87 174.866 136.019 174.287 135.786 174.287Z" fill="black"/>
<path d="M176.664 167.474C176.431 167.474 175.58 168.041 176.664 169.694C177.748 168.053 176.897 167.474 176.664 167.474Z" fill="black"/>
<path d="M135.786 147.035C135.553 147.035 134.702 147.602 135.786 149.255C136.87 147.614 136.019 147.035 135.786 147.035Z" fill="black"/>
<path d="M163.038 147.035C162.805 147.035 161.954 147.602 163.038 149.255C164.122 147.614 163.271 147.035 163.038 147.035Z" fill="black"/>
<path d="M149.412 153.848C149.179 153.848 148.328 154.415 149.412 156.068C150.496 154.427 149.645 153.848 149.412 153.848Z" fill="black"/>
<path d="M176.664 153.848C176.431 153.848 175.58 154.415 176.664 156.068C177.748 154.427 176.897 153.848 176.664 153.848Z" fill="black"/>
<path d="M149.412 140.222C149.179 140.222 148.328 140.789 149.412 142.442C150.496 140.801 149.645 140.222 149.412 140.222Z" fill="black"/>
<path d="M176.664 140.222C176.431 140.222 175.58 140.789 176.664 142.442C177.748 140.801 176.897 140.222 176.664 140.222Z" fill="black"/>
<path d="M136.399 163.221C138.364 163.329 138.432 162.301 138.318 162.086C138.205 161.87 137.245 161.455 136.399 163.221Z" fill="black"/>
<path d="M163.736 163.017L163.941 163.227C165.593 163.227 165.644 162.29 165.547 162.091C165.451 161.893 164.571 161.495 163.736 163.017Z" fill="black"/>
<path d="M137.864 175.524C137.616 175.519 137.374 175.604 137.183 175.763C137.067 175.854 136.961 175.957 136.865 176.069C136.751 176.206 136.648 176.353 136.558 176.507C136.56 176.518 136.56 176.529 136.558 176.541C136.507 176.631 136.451 176.734 136.399 176.847C136.964 176.933 137.541 176.812 138.023 176.507C138.064 176.475 138.101 176.441 138.137 176.404C138.193 176.343 138.241 176.274 138.279 176.2C138.334 176.135 138.368 176.054 138.375 175.969C138.383 175.883 138.364 175.798 138.321 175.724C138.278 175.65 138.213 175.591 138.136 175.555C138.058 175.519 137.971 175.509 137.887 175.524H137.864Z" fill="black"/>
<path d="M177.277 170.034C179.236 170.142 179.31 169.114 179.196 168.899C179.083 168.683 178.123 168.268 177.277 170.034Z" fill="black"/>
<path d="M136.399 149.595C138.364 149.703 138.432 148.675 138.318 148.46C138.205 148.244 137.245 147.829 136.399 149.595Z" fill="black"/>
<path d="M165.548 148.477C165.429 148.272 164.498 147.829 163.629 149.612C165.588 149.703 165.661 148.675 165.548 148.477Z" fill="black"/>
<path d="M150.025 156.408C150.19 156.417 150.355 156.417 150.519 156.408C150.519 156.124 150.548 155.841 150.559 155.579C150.344 155.83 150.165 156.109 150.025 156.408Z" fill="black"/>
<path d="M177.277 156.408C179.236 156.516 179.31 155.488 179.196 155.273C179.083 155.057 178.123 154.642 177.277 156.408Z" fill="black"/>
<path d="M150.025 142.782C151.99 142.89 152.058 141.862 151.944 141.647C151.831 141.431 150.871 141.016 150.025 142.782Z" fill="black"/>
<path d="M177.277 142.782C179.236 142.89 179.31 141.862 179.196 141.647C179.083 141.431 178.123 141.016 177.277 142.782Z" fill="black"/>
<path d="M147.919 169.989L148.231 169.143C147.573 168.461 146.994 168.757 146.903 168.916C146.812 169.075 146.841 169.79 147.919 169.989Z" fill="black"/>
<path d="M187.781 162.103C187.738 162.265 187.753 162.437 187.822 162.59C187.891 162.743 188.011 162.868 188.161 162.943C188.28 162.614 188.383 162.273 188.479 161.927C188.358 161.886 188.228 161.881 188.104 161.912C187.98 161.943 187.868 162.009 187.781 162.103Z" fill="black"/>
<path d="M174.154 168.916C174.035 169.114 174.115 170.142 176.073 170.051C175.205 168.268 174.274 168.711 174.154 168.916Z" fill="black"/>
<path d="M160.528 148.477C160.415 148.675 160.489 149.703 162.447 149.612C161.579 147.829 160.648 148.272 160.528 148.477Z" fill="black"/>
<path d="M146.902 155.29C146.789 155.488 146.863 156.516 148.821 156.425C147.953 154.642 147.022 155.085 146.902 155.29Z" fill="black"/>
<path d="M174.154 155.29C174.035 155.488 174.115 156.516 176.073 156.425C175.205 154.642 174.274 155.085 174.154 155.29Z" fill="black"/>
<path d="M146.902 141.664C146.789 141.862 146.863 142.89 148.821 142.799C147.953 141.016 147.022 141.459 146.902 141.664Z" fill="black"/>
<path d="M174.154 141.664C174.035 141.862 174.115 142.89 176.073 142.799C175.205 141.016 174.274 141.459 174.154 141.664Z" fill="black"/>
<path d="M165.253 135.629C165.378 135.547 165.474 135.428 165.527 135.288C165.581 135.148 165.588 134.995 165.548 134.851C165.434 134.658 164.622 134.283 163.811 135.629C163.743 135.738 163.682 135.852 163.629 135.969C164.194 136.055 164.77 135.934 165.253 135.629Z" fill="black"/>
<path d="M138.001 135.629C138.126 135.547 138.222 135.428 138.276 135.288C138.329 135.148 138.336 134.995 138.296 134.851C138.182 134.658 137.371 134.283 136.559 135.629C136.491 135.738 136.431 135.852 136.377 135.969C136.942 136.055 137.518 135.934 138.001 135.629Z" fill="black"/>
<path d="M135.786 201.539C135.553 201.539 134.702 202.106 135.786 203.758C136.87 202.118 136.019 201.539 135.786 201.539Z" fill="black"/>
<path d="M135.786 215.165C135.553 215.165 134.702 215.732 135.786 217.384C136.87 215.744 136.019 215.165 135.786 215.165Z" fill="black"/>
<path d="M149.412 208.352C149.179 208.352 148.328 208.919 149.412 210.571C150.496 208.931 149.645 208.352 149.412 208.352Z" fill="black"/>
<path d="M135.786 187.913C135.553 187.913 134.702 188.48 135.786 190.132C136.87 188.492 136.019 187.913 135.786 187.913Z" fill="black"/>
<path d="M149.412 194.726C149.179 194.726 148.328 195.293 149.412 196.945C150.496 195.305 149.645 194.726 149.412 194.726Z" fill="black"/>
<path d="M136.399 204.099C138.364 204.207 138.432 203.179 138.318 202.964C138.205 202.748 137.245 202.333 136.399 204.099Z" fill="black"/>
<path d="M137.864 216.402H137.745C137.599 216.413 137.457 216.457 137.331 216.533L137.183 216.635C136.931 216.842 136.719 217.094 136.559 217.379C136.491 217.488 136.431 217.602 136.377 217.719C136.942 217.805 137.518 217.684 138.001 217.379C138.126 217.297 138.222 217.178 138.276 217.038C138.329 216.898 138.336 216.745 138.296 216.601C138.243 216.538 138.176 216.488 138.102 216.454C138.027 216.42 137.946 216.402 137.864 216.402Z" fill="black"/>
<path d="M150.025 210.912C151.99 211.02 152.058 209.992 151.944 209.777C151.831 209.561 150.871 209.146 150.025 210.912Z" fill="black"/>
<path d="M136.399 190.473C138.364 190.581 138.432 189.553 138.318 189.338C138.205 189.122 137.245 188.707 136.399 190.473Z" fill="black"/>
<path d="M150.025 197.286C151.99 197.394 152.058 196.366 151.944 196.151C151.831 195.935 150.871 195.52 150.025 197.286Z" fill="black"/>
<path d="M146.902 209.794C146.789 209.992 146.863 211.02 148.821 210.929C147.953 209.146 147.022 209.589 146.902 209.794Z" fill="black"/>
<path d="M146.902 196.168C146.789 196.366 146.863 197.394 148.821 197.303C147.953 195.52 147.022 195.963 146.902 196.168Z" fill="black"/>
<path d="M149.412 221.977C149.179 221.977 148.328 222.545 149.412 224.197C150.496 222.556 149.645 221.977 149.412 221.977Z" fill="black"/>
<path d="M150.025 224.538C151.99 224.646 152.058 223.618 151.944 223.403C151.831 223.187 150.871 222.772 150.025 224.538Z" fill="black"/>
<path d="M146.902 223.42C146.789 223.618 146.863 224.646 148.821 224.555C147.953 222.772 147.022 223.215 146.902 223.42Z" fill="black"/>
<path d="M108.534 92.531C108.301 92.531 107.45 93.0987 108.534 94.7509C109.618 93.1101 108.767 92.531 108.534 92.531Z" fill="black"/>
<path d="M95.2314 85.9053C95.2314 86.2119 95.2769 86.6377 95.3109 87.1714C95.4188 86.9744 95.4687 86.7509 95.4546 86.5268C95.4405 86.3027 95.3631 86.0872 95.2314 85.9053Z" fill="black"/>
<path d="M110.612 93.7686C110.364 93.7636 110.122 93.8482 109.931 94.007C109.815 94.0987 109.709 94.2013 109.613 94.3136C109.499 94.4507 109.396 94.5969 109.306 94.7508V94.7849C109.255 94.8757 109.199 94.9779 109.147 95.0914C109.712 95.1769 110.289 95.056 110.771 94.7508C110.812 94.7196 110.85 94.6854 110.885 94.6486C110.941 94.5875 110.989 94.5187 111.027 94.4442C111.067 94.3731 111.091 94.2942 111.098 94.2129C111.105 94.1316 111.094 94.0498 111.066 93.973C111.011 93.9066 110.942 93.8537 110.863 93.8183C110.784 93.7829 110.699 93.7659 110.612 93.7686Z" fill="black"/>
<path d="M95.5215 88.2785C97.4859 88.3863 97.554 87.3587 97.4405 87.143C97.3269 86.9272 96.3674 86.5128 95.5215 88.2785Z" fill="black"/>
<path d="M81.8051 120.413C81.795 120.326 81.77 120.242 81.7313 120.163C81.7148 120.128 81.6958 120.094 81.6745 120.061C81.6384 120.006 81.5944 119.956 81.5439 119.913C81.5031 119.878 81.4571 119.85 81.4076 119.828C81.3726 119.81 81.3337 119.8 81.2941 119.8C81.2545 119.8 81.2156 119.81 81.1805 119.828C80.9194 119.942 80.4936 120.396 80.9705 121.452C81.065 121.649 81.1731 121.838 81.2941 122.02C81.415 121.838 81.5232 121.649 81.6177 121.452C81.7516 121.186 81.8253 120.893 81.8334 120.595C81.8365 120.542 81.8365 120.489 81.8334 120.436L81.8051 120.413Z" fill="black"/>
<path d="M108.534 119.783C108.301 119.783 107.45 120.35 108.534 122.003C109.618 120.362 108.767 119.783 108.534 119.783Z" fill="black"/>
<path d="M108.534 133.409C108.301 133.409 107.45 133.976 108.534 135.629C109.618 133.988 108.767 133.409 108.534 133.409Z" fill="black"/>
<path d="M81.8051 134.039C81.795 133.952 81.77 133.867 81.7313 133.789C81.7148 133.754 81.6958 133.719 81.6745 133.687C81.6384 133.631 81.5944 133.582 81.5439 133.539C81.5031 133.504 81.4571 133.475 81.4076 133.454C81.3726 133.436 81.3337 133.426 81.2941 133.426C81.2545 133.426 81.2156 133.436 81.1805 133.454C80.9194 133.568 80.4936 134.022 80.9705 135.078C81.065 135.274 81.1731 135.464 81.2941 135.646C81.415 135.464 81.5232 135.274 81.6177 135.078C81.7516 134.811 81.8253 134.519 81.8334 134.221C81.8365 134.168 81.8365 134.114 81.8334 134.062L81.8051 134.039Z" fill="black"/>
<path d="M94.9081 126.596C94.6753 126.596 93.8237 127.163 94.9081 128.816C95.9925 127.175 95.1409 126.596 94.9081 126.596Z" fill="black"/>
<path d="M122.16 126.596C121.927 126.596 121.076 127.163 122.16 128.816C123.244 127.175 122.393 126.596 122.16 126.596Z" fill="black"/>
<path d="M108.534 106.157C108.301 106.157 107.45 106.724 108.534 108.377C109.618 106.736 108.767 106.157 108.534 106.157Z" fill="black"/>
<path d="M94.9081 112.97C94.6753 112.97 93.8237 113.537 94.9081 115.19C95.9925 113.549 95.1409 112.97 94.9081 112.97Z" fill="black"/>
<path d="M122.16 112.97C121.927 112.97 121.076 113.537 122.16 115.19C123.244 113.549 122.393 112.97 122.16 112.97Z" fill="black"/>
<path d="M81.8955 122.343C83.8599 122.451 83.928 121.424 83.8145 121.208C83.7009 120.992 82.7415 120.578 81.8955 122.343Z" fill="black"/>
<path d="M109.147 122.343C111.106 122.451 111.18 121.424 111.066 121.208C110.953 120.992 109.993 120.578 109.147 122.343Z" fill="black"/>
<path d="M95.5215 129.156C97.4859 129.264 97.554 128.237 97.4405 128.021C97.3269 127.805 96.3674 127.391 95.5215 129.156Z" fill="black"/>
<path d="M122.773 129.156C124.732 129.264 124.806 128.237 124.692 128.021C124.579 127.805 123.619 127.391 122.773 129.156Z" fill="black"/>
<path d="M109.147 108.717C111.106 108.825 111.18 107.798 111.066 107.582C110.953 107.366 109.993 106.952 109.147 108.717Z" fill="black"/>
<path d="M95.5215 115.53C97.4859 115.638 97.554 114.611 97.4405 114.395C97.3269 114.179 96.3674 113.765 95.5215 115.53Z" fill="black"/>
<path d="M122.773 115.53C124.732 115.638 124.806 114.611 124.692 114.395C124.579 114.179 123.619 113.765 122.773 115.53Z" fill="black"/>
<path d="M97.418 100.786C97.3045 100.593 96.4756 100.218 95.6523 101.609C95.6523 101.711 95.6523 101.808 95.6523 101.904C97.4578 101.984 97.5316 100.979 97.418 100.786Z" fill="black"/>
<path d="M106.025 121.225C105.911 121.424 105.985 122.451 107.944 122.36C107.075 120.578 106.144 121.021 106.025 121.225Z" fill="black"/>
<path d="M106.024 134.851C105.985 134.995 105.992 135.148 106.045 135.288C106.098 135.428 106.194 135.547 106.32 135.629C106.803 135.933 107.379 136.054 107.943 135.969C107.89 135.852 107.829 135.738 107.762 135.629C106.95 134.266 106.138 134.658 106.024 134.851Z" fill="black"/>
<path d="M92.3986 128.038C92.285 128.237 92.3588 129.264 94.3176 129.173C93.4489 127.391 92.5178 127.834 92.3986 128.038Z" fill="black"/>
<path d="M133.277 121.225C133.157 121.424 133.237 122.451 135.196 122.36C134.327 120.578 133.396 121.021 133.277 121.225Z" fill="black"/>
<path d="M135.014 135.629C134.202 134.266 133.39 134.658 133.276 134.851C133.237 134.995 133.244 135.148 133.297 135.288C133.35 135.428 133.446 135.547 133.572 135.629C134.054 135.934 134.631 136.055 135.195 135.969C135.142 135.852 135.081 135.738 135.014 135.629Z" fill="black"/>
<path d="M119.651 128.038C119.531 128.237 119.611 129.264 121.57 129.173C120.701 127.391 119.77 127.834 119.651 128.038Z" fill="black"/>
<path d="M106.025 107.599C105.911 107.798 105.985 108.825 107.944 108.734C107.075 106.952 106.144 107.395 106.025 107.599Z" fill="black"/>
<path d="M92.3986 114.412C92.285 114.611 92.3588 115.638 94.3176 115.547C93.4489 113.765 92.5178 114.208 92.3986 114.412Z" fill="black"/>
<path d="M119.651 114.412C119.531 114.611 119.611 115.638 121.57 115.547C120.701 113.765 119.77 114.208 119.651 114.412Z" fill="black"/>
<path d="M120.502 101.819C120.451 101.66 120.4 101.507 120.355 101.342C120.309 101.178 120.23 100.848 120.173 100.582C120.076 100.571 119.978 100.584 119.887 100.619C119.796 100.655 119.715 100.712 119.651 100.786C119.56 100.939 119.588 101.587 120.502 101.819Z" fill="black"/>
<path d="M107.762 94.7507C107.672 94.5968 107.57 94.4506 107.455 94.3136C107.361 94.1999 107.255 94.097 107.138 94.007C106.946 93.8482 106.705 93.7635 106.456 93.7685C106.374 93.7692 106.292 93.7879 106.218 93.8231C106.143 93.8584 106.078 93.9096 106.025 93.9729C105.997 94.0497 105.986 94.1315 105.993 94.2129C106 94.2942 106.024 94.3731 106.064 94.4441C106.102 94.5186 106.15 94.5874 106.206 94.6485L106.32 94.7507C106.803 95.055 107.379 95.1759 107.944 95.0914C107.893 94.9778 107.836 94.8756 107.785 94.7848L107.762 94.7507Z" fill="black"/>
<path d="M81.8051 161.291C81.795 161.204 81.77 161.119 81.7313 161.041C81.7148 161.006 81.6958 160.971 81.6745 160.939C81.6384 160.883 81.5944 160.834 81.5439 160.791C81.5031 160.756 81.4571 160.727 81.4076 160.706C81.3726 160.688 81.3337 160.678 81.2941 160.678C81.2545 160.678 81.2156 160.688 81.1805 160.706C80.9194 160.82 80.4936 161.274 80.9705 162.33C81.065 162.526 81.1731 162.716 81.2941 162.898C81.415 162.716 81.5232 162.526 81.6177 162.33C81.7516 162.063 81.8253 161.771 81.8334 161.472C81.8365 161.42 81.8365 161.366 81.8334 161.313L81.8051 161.291Z" fill="black"/>
<path d="M108.534 160.661C108.301 160.661 107.45 161.228 108.534 162.881C109.618 161.24 108.767 160.661 108.534 160.661Z" fill="black"/>
<path d="M108.534 174.287C108.301 174.287 107.45 174.854 108.534 176.507C109.618 174.866 108.767 174.287 108.534 174.287Z" fill="black"/>
<path d="M81.8051 174.917C81.795 174.83 81.77 174.745 81.7313 174.667C81.7148 174.632 81.6958 174.597 81.6745 174.565C81.6384 174.509 81.5944 174.46 81.5439 174.417C81.5031 174.382 81.4571 174.353 81.4076 174.332C81.3728 174.313 81.3337 174.303 81.2941 174.303C81.2544 174.303 81.2154 174.313 81.1805 174.332C80.9194 174.446 80.4936 174.9 80.9705 175.956C81.065 176.152 81.1731 176.342 81.2941 176.524C81.415 176.342 81.5232 176.152 81.6177 175.956C81.7516 175.689 81.8253 175.397 81.8334 175.098C81.8365 175.046 81.8365 174.992 81.8334 174.939L81.8051 174.917Z" fill="black"/>
<path d="M94.9081 167.474C94.6753 167.474 93.8237 168.041 94.9081 169.694C95.9925 168.053 95.1409 167.474 94.9081 167.474Z" fill="black"/>
<path d="M122.16 167.474C121.927 167.474 121.076 168.041 122.16 169.694C123.244 168.053 122.393 167.474 122.16 167.474Z" fill="black"/>
<path d="M81.8051 147.665C81.795 147.578 81.77 147.493 81.7313 147.415C81.7148 147.38 81.6958 147.345 81.6745 147.313C81.6384 147.257 81.5944 147.208 81.5439 147.165C81.5031 147.13 81.4571 147.101 81.4076 147.08C81.3726 147.062 81.3337 147.052 81.2941 147.052C81.2545 147.052 81.2156 147.062 81.1805 147.08C80.9194 147.194 80.4936 147.648 80.9705 148.704C81.065 148.9 81.1731 149.09 81.2941 149.272C81.415 149.09 81.5232 148.9 81.6177 148.704C81.7516 148.437 81.8253 148.145 81.8334 147.846C81.8365 147.794 81.8365 147.74 81.8334 147.688L81.8051 147.665Z" fill="black"/>
<path d="M108.534 147.035C108.301 147.035 107.45 147.602 108.534 149.255C109.618 147.614 108.767 147.035 108.534 147.035Z" fill="black"/>
<path d="M94.9081 153.848C94.6753 153.848 93.8237 154.415 94.9081 156.068C95.9925 154.427 95.1409 153.848 94.9081 153.848Z" fill="black"/>
<path d="M122.16 153.848C121.927 153.848 121.076 154.415 122.16 156.068C123.244 154.427 122.393 153.848 122.16 153.848Z" fill="black"/>
<path d="M94.9081 140.222C94.6753 140.222 93.8237 140.789 94.9081 142.442C95.9925 140.801 95.1409 140.222 94.9081 140.222Z" fill="black"/>
<path d="M122.16 140.222C121.927 140.222 121.076 140.789 122.16 142.442C123.244 140.801 122.393 140.222 122.16 140.222Z" fill="black"/>
<path d="M81.8955 163.221C83.8599 163.329 83.928 162.301 83.8145 162.086C83.7009 161.87 82.7415 161.455 81.8955 163.221Z" fill="black"/>
<path d="M109.147 163.221C111.106 163.329 111.18 162.301 111.066 162.086C110.953 161.87 109.993 161.455 109.147 163.221Z" fill="black"/>
<path d="M110.612 175.524C110.364 175.519 110.122 175.604 109.931 175.763C109.815 175.854 109.709 175.957 109.613 176.069C109.499 176.206 109.396 176.352 109.306 176.506V176.54C109.255 176.631 109.199 176.733 109.147 176.847C109.712 176.933 110.289 176.812 110.771 176.506C110.812 176.475 110.85 176.441 110.885 176.404C110.941 176.343 110.989 176.274 111.027 176.2C111.067 176.129 111.091 176.05 111.098 175.969C111.105 175.887 111.094 175.805 111.066 175.729C111.011 175.662 110.942 175.609 110.863 175.574C110.784 175.539 110.699 175.522 110.612 175.524Z" fill="black"/>
<path d="M83.3603 175.524C83.1119 175.519 82.8701 175.604 82.679 175.763C82.5633 175.854 82.4568 175.957 82.3611 176.069C82.247 176.206 82.1445 176.353 82.0545 176.507V176.541C82.0034 176.631 81.9466 176.734 81.8955 176.847C82.4601 176.933 83.0366 176.812 83.5193 176.507C83.5596 176.475 83.5976 176.441 83.6328 176.404C83.6895 176.343 83.7373 176.274 83.7748 176.2C83.8301 176.135 83.8639 176.054 83.8715 175.969C83.8791 175.883 83.8602 175.798 83.8173 175.724C83.7743 175.65 83.7096 175.591 83.6318 175.555C83.554 175.519 83.4671 175.509 83.383 175.524H83.3603Z" fill="black"/>
<path d="M95.5215 170.034C97.4859 170.142 97.554 169.114 97.4405 168.899C97.3269 168.683 96.3674 168.268 95.5215 170.034Z" fill="black"/>
<path d="M122.773 170.034C124.732 170.142 124.806 169.114 124.692 168.899C124.579 168.683 123.619 168.268 122.773 170.034Z" fill="black"/>
<path d="M81.8955 149.595C83.8599 149.703 83.928 148.675 83.8145 148.46C83.7009 148.244 82.7415 147.829 81.8955 149.595Z" fill="black"/>
<path d="M109.147 149.595C111.106 149.703 111.18 148.675 111.066 148.46C110.953 148.244 109.993 147.829 109.147 149.595Z" fill="black"/>
<path d="M95.5215 156.408C97.4859 156.516 97.554 155.488 97.4405 155.273C97.3269 155.057 96.3674 154.642 95.5215 156.408Z" fill="black"/>
<path d="M122.773 156.408C124.732 156.516 124.806 155.488 124.692 155.273C124.579 155.057 123.619 154.642 122.773 156.408Z" fill="black"/>
<path d="M95.5215 142.782C97.4859 142.89 97.554 141.862 97.4405 141.647C97.3269 141.431 96.3674 141.016 95.5215 142.782Z" fill="black"/>
<path d="M122.773 142.782C124.732 142.89 124.806 141.862 124.692 141.647C124.579 141.431 123.619 141.016 122.773 142.782Z" fill="black"/>
<path d="M106.025 162.103C105.911 162.301 105.985 163.329 107.944 163.238C107.075 161.455 106.144 161.898 106.025 162.103Z" fill="black"/>
<path d="M92.3986 168.916C92.285 169.114 92.3588 170.142 94.3176 170.051C93.4489 168.268 92.5178 168.711 92.3986 168.916Z" fill="black"/>
<path d="M133.277 162.103C133.157 162.301 133.237 163.329 135.196 163.238C134.327 161.455 133.396 161.898 133.277 162.103Z" fill="black"/>
<path d="M119.651 168.916C119.531 169.114 119.611 170.142 121.57 170.051C120.701 168.268 119.77 168.711 119.651 168.916Z" fill="black"/>
<path d="M84.502 178.21C84.502 178.21 99.2634 181.997 117.806 167.616C136.349 153.235 143.548 158.906 142.787 169.126C142.026 179.345 126.135 188.81 119.322 189.945C108.12 191.813 98.1279 194.868 84.502 178.21Z" fill="black"/>
<path d="M106.025 148.477C105.911 148.675 105.985 149.703 107.944 149.612C107.075 147.829 106.144 148.272 106.025 148.477Z" fill="black"/>
<path d="M92.3986 155.29C92.285 155.488 92.3588 156.516 94.3176 156.425C93.4489 154.642 92.5178 155.085 92.3986 155.29Z" fill="black"/>
<path d="M133.277 148.477C133.157 148.675 133.237 149.703 135.196 149.612C134.327 147.829 133.396 148.272 133.277 148.477Z" fill="black"/>
<path d="M119.651 155.29C119.531 155.488 119.611 156.516 121.57 156.425C120.701 154.642 119.77 155.085 119.651 155.29Z" fill="black"/>
<path d="M92.3986 141.664C92.285 141.862 92.3588 142.89 94.3176 142.799C93.4489 141.016 92.5178 141.459 92.3986 141.664Z" fill="black"/>
<path d="M119.651 141.664C119.531 141.862 119.611 142.89 121.57 142.799C120.701 141.016 119.77 141.459 119.651 141.664Z" fill="black"/>
<path d="M110.749 135.629C110.874 135.547 110.97 135.428 111.024 135.288C111.077 135.148 111.084 134.995 111.044 134.851C110.93 134.658 110.119 134.283 109.307 135.629C109.239 135.738 109.179 135.852 109.125 135.969C109.69 136.055 110.266 135.934 110.749 135.629Z" fill="black"/>
<path d="M83.4968 135.629C83.6223 135.547 83.7185 135.428 83.7716 135.288C83.8247 135.148 83.8318 134.995 83.792 134.851C83.6785 134.658 82.8666 134.283 82.0547 135.629C81.9873 135.738 81.9266 135.852 81.873 135.969C82.4377 136.055 83.0142 135.934 83.4968 135.629Z" fill="black"/>
<path d="M81.8051 202.169C81.795 202.082 81.77 201.997 81.7313 201.919C81.7148 201.884 81.6958 201.849 81.6745 201.817C81.6384 201.761 81.5944 201.712 81.5439 201.669C81.5031 201.634 81.4571 201.605 81.4076 201.584C81.3728 201.565 81.3337 201.555 81.2941 201.555C81.2544 201.555 81.2154 201.565 81.1805 201.584C80.9194 201.697 80.4936 202.152 80.9705 203.208C81.065 203.404 81.1731 203.594 81.2941 203.775C81.415 203.594 81.5232 203.404 81.6177 203.208C81.7516 202.941 81.8253 202.649 81.8334 202.35C81.8365 202.297 81.8365 202.244 81.8334 202.191L81.8051 202.169Z" fill="black"/>
<path d="M108.534 201.539C108.301 201.539 107.45 202.106 108.534 203.758C109.618 202.118 108.767 201.539 108.534 201.539Z" fill="black"/>
<path d="M108.534 215.165C108.301 215.165 107.45 215.732 108.534 217.384C109.618 215.744 108.767 215.165 108.534 215.165Z" fill="black"/>
<path d="M81.8051 215.795C81.795 215.708 81.77 215.623 81.7313 215.545C81.7148 215.51 81.6958 215.475 81.6745 215.443C81.6384 215.387 81.5944 215.338 81.5439 215.295C81.5031 215.26 81.4571 215.231 81.4076 215.21C81.3728 215.191 81.3337 215.181 81.2941 215.181C81.2544 215.181 81.2154 215.191 81.1805 215.21C80.9194 215.323 80.4936 215.778 80.9705 216.834C81.065 217.03 81.1731 217.22 81.2941 217.401C81.415 217.22 81.5232 217.03 81.6177 216.834C81.7516 216.567 81.8253 216.275 81.8334 215.976C81.8365 215.923 81.8365 215.87 81.8334 215.817L81.8051 215.795Z" fill="black"/>
<path d="M94.9081 208.352C94.6753 208.352 93.8237 208.919 94.9081 210.571C95.9925 208.931 95.1409 208.352 94.9081 208.352Z" fill="black"/>
<path d="M122.16 208.352C121.927 208.352 121.076 208.919 122.16 210.571C123.244 208.931 122.393 208.352 122.16 208.352Z" fill="black"/>
<path d="M81.8051 188.543C81.795 188.456 81.77 188.371 81.7313 188.293C81.7148 188.258 81.6958 188.223 81.6745 188.191C81.6384 188.135 81.5944 188.086 81.5439 188.043C81.5031 188.008 81.4571 187.979 81.4076 187.958C81.3728 187.939 81.3337 187.929 81.2941 187.929C81.2544 187.929 81.2154 187.939 81.1805 187.958C80.9194 188.072 80.4936 188.526 80.9705 189.582C81.065 189.778 81.1731 189.968 81.2941 190.149C81.415 189.968 81.5232 189.778 81.6177 189.582C81.7516 189.315 81.8253 189.023 81.8334 188.724C81.8365 188.671 81.8365 188.618 81.8334 188.565L81.8051 188.543Z" fill="black"/>
<path d="M108.534 187.913C108.301 187.913 107.45 188.48 108.534 190.132C109.618 188.492 108.767 187.913 108.534 187.913Z" fill="black"/>
<path d="M94.9081 194.726C94.6753 194.726 93.8237 195.293 94.9081 196.945C95.9925 195.305 95.1409 194.726 94.9081 194.726Z" fill="black"/>
<path d="M122.16 194.726C121.927 194.726 121.076 195.293 122.16 196.945C123.244 195.305 122.393 194.726 122.16 194.726Z" fill="black"/>
<path d="M94.9081 181.1C94.6753 181.1 93.8237 181.667 94.9081 183.32C95.9925 181.679 95.1409 181.1 94.9081 181.1Z" fill="black"/>
<path d="M122.16 181.1C121.927 181.1 121.076 181.667 122.16 183.32C123.244 181.679 122.393 181.1 122.16 181.1Z" fill="black"/>
<path d="M81.8955 204.099C83.8599 204.207 83.928 203.179 83.8145 202.964C83.7009 202.748 82.7415 202.333 81.8955 204.099Z" fill="black"/>
<path d="M109.147 204.099C111.106 204.207 111.18 203.179 111.066 202.964C110.953 202.748 109.993 202.333 109.147 204.099Z" fill="black"/>
<path d="M110.612 216.402H110.493C110.347 216.413 110.205 216.457 110.079 216.533L109.931 216.635C109.679 216.842 109.467 217.094 109.307 217.379C109.239 217.488 109.179 217.602 109.125 217.719C109.69 217.805 110.266 217.684 110.749 217.379C110.874 217.297 110.97 217.178 111.024 217.038C111.077 216.898 111.084 216.745 111.044 216.601C110.991 216.538 110.925 216.488 110.85 216.454C110.776 216.42 110.695 216.402 110.612 216.402Z" fill="black"/>
<path d="M83.3605 216.402H83.2413C83.0949 216.413 82.953 216.457 82.8269 216.533L82.6792 216.635C82.4266 216.842 82.2148 217.094 82.0547 217.379C81.9873 217.488 81.9266 217.602 81.873 217.719C82.4377 217.805 83.0142 217.684 83.4968 217.379C83.6223 217.297 83.7185 217.178 83.7716 217.038C83.8247 216.898 83.8318 216.745 83.792 216.601C83.7387 216.538 83.6726 216.488 83.5981 216.454C83.5236 216.42 83.4425 216.402 83.3605 216.402Z" fill="black"/>
<path d="M95.5215 210.912C97.4859 211.02 97.554 209.992 97.4405 209.777C97.3269 209.561 96.3674 209.146 95.5215 210.912Z" fill="black"/>
<path d="M122.773 210.912C124.732 211.02 124.806 209.992 124.692 209.777C124.579 209.561 123.619 209.146 122.773 210.912Z" fill="black"/>
<path d="M81.8955 190.473C83.8599 190.581 83.928 189.553 83.8145 189.338C83.7009 189.122 82.7415 188.707 81.8955 190.473Z" fill="black"/>
<path d="M109.147 190.473C111.106 190.581 111.18 189.553 111.066 189.338C110.953 189.122 109.993 188.707 109.147 190.473Z" fill="black"/>
<path d="M95.5215 197.286C97.4859 197.394 97.554 196.366 97.4405 196.151C97.3269 195.935 96.3674 195.52 95.5215 197.286Z" fill="black"/>
<path d="M122.773 197.286C124.732 197.394 124.806 196.366 124.692 196.151C124.579 195.935 123.619 195.52 122.773 197.286Z" fill="black"/>
<path d="M95.5215 183.66C97.4859 183.768 97.554 182.74 97.4405 182.525C97.3269 182.309 96.3674 181.894 95.5215 183.66Z" fill="black"/>
<path d="M122.773 183.66C124.732 183.768 124.806 182.74 124.692 182.525C124.579 182.309 123.619 181.894 122.773 183.66Z" fill="black"/>
<path d="M106.025 202.981C105.911 203.179 105.985 204.207 107.944 204.116C107.075 202.333 106.144 202.776 106.025 202.981Z" fill="black"/>
<path d="M107.137 216.669L106.99 216.567C106.864 216.491 106.722 216.446 106.575 216.436H106.456C106.373 216.437 106.292 216.456 106.218 216.491C106.143 216.526 106.077 216.577 106.024 216.641C105.985 216.785 105.992 216.938 106.045 217.078C106.098 217.218 106.194 217.337 106.32 217.418C106.803 217.723 107.379 217.844 107.943 217.759C107.89 217.642 107.829 217.528 107.762 217.418C107.604 217.131 107.392 216.876 107.137 216.669Z" fill="black"/>
<path d="M92.3986 209.794C92.285 209.992 92.3588 211.02 94.3176 210.929C93.4489 209.146 92.5178 209.589 92.3986 209.794Z" fill="black"/>
<path d="M133.277 202.981C133.157 203.179 133.237 204.207 135.196 204.116C134.327 202.333 133.396 202.776 133.277 202.981Z" fill="black"/>
<path d="M135.014 217.384C134.854 217.1 134.642 216.847 134.389 216.64L134.242 216.538C134.115 216.463 133.974 216.418 133.827 216.408H133.708C133.625 216.408 133.544 216.427 133.47 216.462C133.395 216.498 133.329 216.549 133.276 216.612C133.237 216.756 133.244 216.909 133.297 217.049C133.35 217.189 133.446 217.308 133.572 217.39C134.054 217.695 134.631 217.816 135.195 217.731C135.142 217.613 135.081 217.5 135.014 217.39V217.384Z" fill="black"/>
<path d="M119.651 209.794C119.531 209.992 119.611 211.02 121.57 210.929C120.701 209.146 119.77 209.589 119.651 209.794Z" fill="black"/>
<path d="M106.025 189.355C105.911 189.553 105.985 190.581 107.944 190.49C107.075 188.707 106.144 189.15 106.025 189.355Z" fill="black"/>
<path d="M92.3986 196.168C92.285 196.366 92.3588 197.394 94.3176 197.303C93.4489 195.52 92.5178 195.963 92.3986 196.168Z" fill="black"/>
<path d="M133.277 189.355C133.157 189.553 133.237 190.581 135.196 190.49C134.327 188.707 133.396 189.15 133.277 189.355Z" fill="black"/>
<path d="M119.651 196.168C119.531 196.366 119.611 197.394 121.57 197.303C120.701 195.52 119.77 195.963 119.651 196.168Z" fill="black"/>
<path d="M92.3986 182.542C92.285 182.74 92.3588 183.768 94.3176 183.677C93.4489 181.894 92.5178 182.337 92.3986 182.542Z" fill="black"/>
<path d="M119.651 182.542C119.531 182.74 119.611 183.768 121.57 183.677C120.701 181.894 119.77 182.337 119.651 182.542Z" fill="black"/>
<path d="M107.762 176.507C107.672 176.353 107.57 176.206 107.455 176.069C107.361 175.956 107.255 175.853 107.138 175.763C106.946 175.604 106.705 175.519 106.456 175.524C106.374 175.525 106.292 175.544 106.218 175.579C106.143 175.614 106.078 175.665 106.025 175.729C105.997 175.806 105.986 175.887 105.993 175.969C106 176.05 106.024 176.129 106.064 176.2C106.102 176.274 106.15 176.343 106.206 176.404L106.32 176.507C106.803 176.811 107.379 176.932 107.944 176.847C107.893 176.734 107.836 176.631 107.785 176.541L107.762 176.507Z" fill="black"/>
<path d="M135.014 176.507C134.924 176.353 134.821 176.206 134.707 176.069C134.612 175.957 134.505 175.854 134.389 175.763C134.198 175.604 133.957 175.519 133.708 175.524C133.626 175.525 133.544 175.544 133.47 175.579C133.395 175.614 133.329 175.665 133.277 175.729C133.249 175.806 133.238 175.887 133.245 175.969C133.252 176.05 133.276 176.129 133.316 176.2C133.354 176.274 133.402 176.343 133.458 176.404C133.494 176.441 133.532 176.475 133.572 176.507C134.055 176.812 134.631 176.933 135.196 176.847C135.145 176.734 135.088 176.631 135.037 176.541C135.027 176.531 135.02 176.519 135.014 176.507Z" fill="black"/>
<path d="M94.9081 221.977C94.6753 221.977 93.8237 222.545 94.9081 224.197C95.9925 222.556 95.1409 221.977 94.9081 221.977Z" fill="black"/>
<path d="M122.16 221.977C121.927 221.977 121.076 222.545 122.16 224.197C123.244 222.556 122.393 221.977 122.16 221.977Z" fill="black"/>
<path d="M95.5215 224.538C97.4859 224.646 97.554 223.618 97.4405 223.403C97.3269 223.187 96.3674 222.772 95.5215 224.538Z" fill="black"/>
<path d="M122.773 224.538C124.732 224.646 124.806 223.618 124.692 223.403C124.579 223.187 123.619 222.772 122.773 224.538Z" fill="black"/>
<path d="M92.3986 223.42C92.285 223.618 92.3588 224.646 94.3176 224.555C93.4489 222.772 92.5178 223.215 92.3986 223.42Z" fill="black"/>
<path d="M119.651 223.42C119.531 223.618 119.611 224.646 121.57 224.555C120.701 222.772 119.77 223.215 119.651 223.42Z" fill="black"/>
<path d="M54.0302 133.409C53.7974 133.409 52.9458 133.976 54.0302 135.629C55.1146 133.988 54.2629 133.409 54.0302 133.409Z" fill="black"/>
<path d="M67.6561 126.596C67.4234 126.596 66.5717 127.163 67.6561 128.816C68.7405 127.175 67.8889 126.596 67.6561 126.596Z" fill="black"/>
<path d="M68.1562 113.492L67.1172 113.759C67.1519 114.279 67.3396 114.777 67.6565 115.19C68.1846 114.395 68.2697 113.844 68.1562 113.492Z" fill="black"/>
<path d="M54.6436 122.343C56.6023 122.451 56.6761 121.424 56.5625 121.208C56.449 120.992 55.4895 120.578 54.6436 122.343Z" fill="black"/>
<path d="M68.2695 129.156C70.2283 129.264 70.3021 128.237 70.1885 128.021C70.075 127.805 69.1155 127.391 68.2695 129.156Z" fill="black"/>
<path d="M68.2695 115.53C70.2283 115.638 70.3021 114.611 70.1885 114.395C70.075 114.179 69.1155 113.765 68.2695 115.53Z" fill="black"/>
<path d="M51.5215 134.851C51.4817 134.995 51.4888 135.148 51.5419 135.288C51.595 135.428 51.6912 135.547 51.8167 135.629C52.2997 135.933 52.8759 136.054 53.4405 135.969C53.3869 135.852 53.3262 135.738 53.2588 135.629C52.4469 134.266 51.635 134.658 51.5215 134.851Z" fill="black"/>
<path d="M78.7726 121.225C78.6534 121.424 78.7329 122.451 80.6916 122.36C79.823 120.578 78.8919 121.021 78.7726 121.225Z" fill="black"/>
<path d="M80.5098 135.629C79.6979 134.266 78.886 134.658 78.7725 134.851C78.7326 134.995 78.7398 135.148 78.7929 135.288C78.846 135.428 78.9422 135.547 79.0677 135.629C79.5503 135.934 80.1268 136.055 80.6915 135.969C80.6379 135.852 80.5772 135.738 80.5098 135.629Z" fill="black"/>
<path d="M65.1467 128.038C65.0274 128.237 65.1069 129.264 67.0657 129.173C66.197 127.391 65.2659 127.834 65.1467 128.038Z" fill="black"/>
<path d="M65.5611 114.213L65.2659 114.304C65.2188 114.331 65.1781 114.368 65.1467 114.412C65.0274 114.611 65.1069 115.638 67.0657 115.547C66.5149 114.406 65.9415 114.179 65.5611 114.213Z" fill="black"/>
<path d="M26.7782 160.661C26.5454 160.661 25.6938 161.228 26.7782 162.881C27.8626 161.24 27.011 160.661 26.7782 160.661Z" fill="black"/>
<path d="M40.4042 167.474C40.1714 167.474 39.3198 168.041 40.4042 169.694C41.4886 168.053 40.637 167.474 40.4042 167.474Z" fill="black"/>
<path d="M54.0302 147.035C53.7974 147.035 52.9458 147.602 54.0302 149.255C55.1146 147.614 54.2629 147.035 54.0302 147.035Z" fill="black"/>
<path d="M40.4042 153.848C40.1714 153.848 39.3198 154.415 40.4042 156.068C41.4886 154.427 40.637 153.848 40.4042 153.848Z" fill="black"/>
<path d="M67.6561 153.848C67.4234 153.848 66.5717 154.415 67.6561 156.068C68.7405 154.427 67.8889 153.848 67.6561 153.848Z" fill="black"/>
<path d="M40.4042 140.222C40.1714 140.222 39.3198 140.789 40.4042 142.442C41.4886 140.801 40.637 140.222 40.4042 140.222Z" fill="black"/>
<path d="M67.6561 140.222C67.4234 140.222 66.5717 140.789 67.6561 142.442C68.7405 140.801 67.8889 140.222 67.6561 140.222Z" fill="black"/>
<path d="M27.3916 163.221C29.356 163.329 29.4298 162.301 29.3106 162.086C29.1914 161.87 28.2375 161.455 27.3916 163.221Z" fill="black"/>
<path d="M41.3301 169.455C41.8354 169.268 42.3293 169.058 42.8176 168.819C42.5791 168.66 41.966 168.552 41.3301 169.455Z" fill="black"/>
<path d="M29.2883 148.477C29.2213 148.391 29.1272 148.331 29.0214 148.306C28.6694 148.755 28.3345 149.181 28.0449 149.584C29.3451 149.448 29.3905 148.653 29.2883 148.477Z" fill="black"/>
<path d="M54.6436 149.595C56.6023 149.703 56.6761 148.675 56.5625 148.46C56.449 148.244 55.4895 147.829 54.6436 149.595Z" fill="black"/>
<path d="M41.0176 156.408C42.982 156.516 43.0501 155.488 42.9366 155.273C42.823 155.057 41.8635 154.642 41.0176 156.408Z" fill="black"/>
<path d="M68.2695 156.408C70.2283 156.516 70.3021 155.488 70.1885 155.273C70.075 155.057 69.1155 154.642 68.2695 156.408Z" fill="black"/>
<path d="M41.0176 142.782C42.982 142.89 43.0501 141.862 42.9366 141.647C42.823 141.431 41.8635 141.016 41.0176 142.782Z" fill="black"/>
<path d="M68.2695 142.782C70.2283 142.89 70.3021 141.862 70.1885 141.647C70.075 141.431 69.1155 141.016 68.2695 142.782Z" fill="black"/>
<path d="M37.8953 168.916C37.7874 169.097 37.8442 169.96 39.3374 170.051L39.7632 169.955C38.9116 168.291 38.0145 168.717 37.8953 168.916Z" fill="black"/>
<path d="M78.7726 162.103C78.6534 162.301 78.7329 163.329 80.6916 163.238C79.823 161.455 78.8919 161.898 78.7726 162.103Z" fill="black"/>
<path d="M51.5206 148.477C51.4071 148.675 51.4809 149.703 53.4396 149.612C52.571 147.829 51.6399 148.272 51.5206 148.477Z" fill="black"/>
<path d="M37.8947 155.29C37.7811 155.488 37.8549 156.516 39.8136 156.425C38.945 154.642 38.0139 155.085 37.8947 155.29Z" fill="black"/>
<path d="M78.7726 148.477C78.6534 148.675 78.7329 149.703 80.6916 149.612C79.823 147.829 78.8919 148.272 78.7726 148.477Z" fill="black"/>
<path d="M37.8947 141.664C37.7811 141.862 37.8549 142.89 39.8136 142.799C38.945 141.016 38.0139 141.459 37.8947 141.664Z" fill="black"/>
<path d="M65.1467 141.664C65.0274 141.862 65.1069 142.89 67.0657 142.799C66.197 141.016 65.2659 141.459 65.1467 141.664Z" fill="black"/>
<path d="M56.2449 135.629C56.3703 135.547 56.4666 135.428 56.5197 135.288C56.5727 135.148 56.5799 134.995 56.5401 134.851C56.4265 134.658 55.6147 134.283 54.8028 135.629C54.7353 135.738 54.6747 135.852 54.6211 135.969C55.1857 136.055 55.7622 135.934 56.2449 135.629Z" fill="black"/>
<path d="M67.6561 208.352C67.4234 208.352 66.5717 208.919 67.6561 210.571C68.7405 208.931 67.8889 208.352 67.6561 208.352Z" fill="black"/>
<path d="M68.0931 196.083L67.6162 196.883L67.6559 196.946C67.8396 196.679 67.9866 196.388 68.0931 196.083Z" fill="black"/>
<path d="M68.2695 210.912C70.2283 211.02 70.3021 209.992 70.1885 209.777C70.075 209.561 69.1155 209.146 68.2695 210.912Z" fill="black"/>
<path d="M68.2695 197.286C70.2283 197.394 70.3021 196.366 70.1885 196.151C70.075 195.935 69.1155 195.52 68.2695 197.286Z" fill="black"/>
<path d="M78.7726 202.981C78.6534 203.179 78.7329 204.207 80.6916 204.116C79.823 202.333 78.8919 202.776 78.7726 202.981Z" fill="black"/>
<path d="M80.5098 217.384C80.3497 217.1 80.1379 216.847 79.8852 216.64L79.7376 216.538C79.6115 216.463 79.4696 216.418 79.3232 216.408H79.2039C79.1215 216.408 79.0402 216.427 78.9657 216.462C78.8912 216.498 78.8252 216.549 78.7725 216.612C78.7326 216.756 78.7398 216.909 78.7929 217.049C78.846 217.189 78.9422 217.308 79.0677 217.39C79.5503 217.695 80.1268 217.816 80.6915 217.731C80.6379 217.613 80.5772 217.5 80.5098 217.39V217.384Z" fill="black"/>
<path d="M65.1467 209.794C65.0274 209.992 65.1069 211.02 67.0657 210.929C66.197 209.146 65.2659 209.589 65.1467 209.794Z" fill="black"/>
<path d="M78.7726 189.355C78.6534 189.553 78.7329 190.581 80.6916 190.49C79.823 188.707 78.8919 189.15 78.7726 189.355Z" fill="black"/>
<path d="M80.5101 176.507C80.4201 176.353 80.3176 176.206 80.2035 176.069C80.1078 175.957 80.0013 175.854 79.8856 175.763C79.6945 175.604 79.4527 175.519 79.2043 175.524C79.1218 175.525 79.0405 175.544 78.966 175.579C78.8915 175.614 78.8256 175.665 78.7728 175.729C78.7452 175.806 78.7344 175.887 78.7413 175.969C78.7481 176.05 78.7724 176.129 78.8125 176.2C78.85 176.274 78.8978 176.343 78.9545 176.404C78.9897 176.441 79.0277 176.475 79.068 176.507C79.5507 176.812 80.1272 176.933 80.6918 176.847C80.6407 176.734 80.5839 176.631 80.5328 176.541L80.5101 176.507Z" fill="black"/>
<path d="M67.6561 221.977C67.4234 221.977 66.5717 222.545 67.6561 224.197C68.7405 222.556 67.8889 221.977 67.6561 221.977Z" fill="black"/>
<path d="M68.2695 224.538C70.2283 224.646 70.3021 223.618 70.1885 223.403C70.075 223.187 69.1155 222.772 68.2695 224.538Z" fill="black"/>
<path d="M65.1467 223.42C65.0274 223.618 65.1069 224.646 67.0657 224.555C66.197 222.772 65.2659 223.215 65.1467 223.42Z" fill="black"/>
<path d="M25.4443 162.194C25.5571 162.545 25.6879 162.889 25.8361 163.227H26.1881C26.0156 162.834 25.7622 162.482 25.4443 162.194Z" fill="black"/>
</g>
</g>
<path d="M158.099 224.765C158.099 224.765 159.115 210.827 152.989 196.883C146.863 182.939 145.484 181.934 145.484 177.852C145.484 173.77 149.583 169.007 150.264 159.826C150.945 150.646 150.605 146.2 150.605 146.2C150.605 146.2 165.224 169.319 175.427 170.682C185.629 172.044 191.749 162.523 188.008 149.601C184.267 136.679 167.944 126.142 161.488 117.637C155.033 109.132 140.402 109.121 132.925 109.121C125.448 109.121 121.706 106.401 120.344 101.303C118.981 96.2044 118.987 85.9735 118.987 85.9735C118.987 85.9735 110.141 91.4126 95.1812 85.2922C95.1812 85.2922 96.5438 103.994 94.8405 106.713C93.1373 109.433 90.7755 112.203 80.573 112.203C70.3706 112.203 61.8714 114.247 57.1137 119.016C52.356 123.786 32.6324 142.816 27.534 150.299C22.4356 157.782 25.1495 165.941 31.2698 169.001C37.3901 172.061 43.5105 169.336 47.9332 165.26C52.356 161.183 66.2942 148.255 66.2942 148.255C66.2942 148.255 66.2942 156.079 70.0356 167.298C73.7771 178.516 76.8486 177.16 74.1121 185.318C71.3755 193.477 65.9535 195.861 64.256 206.399C63.2392 212.464 62.783 218.61 62.8934 224.76" stroke="#263238" stroke-linecap="round" stroke-linejoin="round"/>
<path d="M66.2949 148.261C66.5738 144.584 67.3276 140.958 68.5375 137.474Z" fill="white"/>
<path d="M66.2949 148.261C66.5738 144.584 67.3276 140.958 68.5375 137.474" stroke="#263238" stroke-linecap="round" stroke-linejoin="round"/>
<path d="M150.594 146.223C149.845 143.401 148.804 140.665 147.488 138.059" stroke="#263238" stroke-linecap="round" stroke-linejoin="round"/>
<path d="M100.649 183.91L122.065 177.046" stroke="#263238" stroke-linecap="round" stroke-linejoin="round"/>
<path d="M110.346 178.255C115.349 176.242 120.569 174.819 125.902 174.014" stroke="#263238" stroke-linecap="round" stroke-linejoin="round"/>
<path d="M104.373 135.004C121.337 138.274 127.884 122.014 130.16 109.018C124.511 108.394 121.536 105.765 120.355 101.342C118.998 96.2325 118.998 86.0131 118.998 86.0131C118.998 86.0131 110.153 91.4521 95.1926 85.3318C95.1926 85.3318 96.5552 104.033 94.8519 106.753C93.671 108.649 92.1495 110.545 87.8913 111.516C87.7381 117.353 88.9133 132.018 104.373 135.004Z" fill="#B2B2B2"/>
<mask id="mask1_135_1819" style="mask-type:luminance" maskUnits="userSpaceOnUse" x="87" y="85" width="44" height="51">
<path d="M104.373 135.004C121.337 138.274 127.884 122.014 130.16 109.018C124.511 108.394 121.536 105.765 120.355 101.342C118.998 96.2325 118.998 86.0131 118.998 86.0131C118.998 86.0131 110.153 91.4521 95.1926 85.3318C95.1926 85.3318 96.5552 104.033 94.8519 106.753C93.671 108.649 92.1495 110.545 87.8913 111.516C87.7381 117.353 88.9133 132.018 104.373 135.004Z" fill="white"/>
</mask>
<g mask="url(#mask1_135_1819)">
<path opacity="0.2" d="M119.986 99.6617C118.998 94.2908 118.998 86.0358 118.998 86.0358C118.998 86.0358 110.153 91.4748 95.1924 85.3545C95.1924 85.3545 95.7601 93.1724 95.7034 99.4346C108.58 103.908 116.029 102.012 119.986 99.6617Z" fill="black"/>
</g>
<path d="M104.373 135.004C121.337 138.274 127.884 122.014 130.16 109.018C124.511 108.394 121.536 105.765 120.355 101.342C118.998 96.2325 118.998 86.0131 118.998 86.0131C118.998 86.0131 110.153 91.4521 95.1926 85.3318C95.1926 85.3318 96.5552 104.033 94.8519 106.753C93.671 108.649 92.1495 110.545 87.8913 111.516C87.7381 117.353 88.9133 132.018 104.373 135.004Z" stroke="#263238" stroke-linecap="round" stroke-linejoin="round"/>
<path d="M130.024 79.5182C132.351 79.5182 134.237 77.6321 134.237 75.3055C134.237 72.9789 132.351 71.0928 130.024 71.0928C127.698 71.0928 125.812 72.9789 125.812 75.3055C125.812 77.6321 127.698 79.5182 130.024 79.5182Z" fill="#FF7625" stroke="#263238" stroke-linecap="round" stroke-linejoin="round"/>
<path d="M85.0242 79.5182C87.3508 79.5182 89.2369 77.6321 89.2369 75.3055C89.2369 72.9789 87.3508 71.0928 85.0242 71.0928C82.6976 71.0928 80.8115 72.9789 80.8115 75.3055C80.8115 77.6321 82.6976 79.5182 85.0242 79.5182Z" fill="#FF7625" stroke="#263238" stroke-linecap="round" stroke-linejoin="round"/>
<path d="M129.638 60.947C129.638 60.947 131.745 54.435 134.237 56.7343C136.729 59.0337 133.471 67.8395 131.745 69.9458C130.019 72.0522 128.298 72.0522 128.491 69.1794C128.684 66.3066 129.638 60.947 129.638 60.947Z" fill="#B2B2B2" stroke="#263238" stroke-linecap="round" stroke-linejoin="round"/>
<path d="M86.0918 67.4989C86.0918 67.4989 86.6595 82.7088 97.8555 90.169C109.052 97.6292 117.369 93.3257 121.962 87.0124C126.555 80.699 129.428 74.3856 129.428 65.2052C129.428 56.0247 130.563 51.9993 127.418 46.2594C124.273 40.5195 113.355 37.6523 113.355 37.6523C108.819 43.3128 103.931 48.6811 98.7185 53.7253C90.1058 62.0428 86.0918 67.4989 86.0918 67.4989Z" fill="#B2B2B2"/>
<mask id="mask2_135_1819" style="mask-type:luminance" maskUnits="userSpaceOnUse" x="86" y="37" width="44" height="58">
<path d="M86.0918 67.4989C86.0918 67.4989 86.6595 82.7088 97.8555 90.169C109.052 97.6292 117.369 93.3257 121.962 87.0124C126.555 80.699 129.428 74.3856 129.428 65.2052C129.428 56.0247 130.563 51.9993 127.418 46.2594C124.273 40.5195 113.355 37.6523 113.355 37.6523C108.819 43.3128 103.931 48.6811 98.7185 53.7253C90.1058 62.0428 86.0918 67.4989 86.0918 67.4989Z" fill="white"/>
</mask>
<g mask="url(#mask2_135_1819)">
<path opacity="0.2" d="M113.355 37.6523C108.819 43.3128 103.931 48.6811 98.7185 53.7253C90.1058 62.0428 86.0918 67.4988 86.0918 67.4988C86.2997 70.4624 86.8855 73.3873 87.8348 76.2024C102.96 64.6317 111.22 43.8408 113.418 37.6694L113.355 37.6523Z" fill="black"/>
</g>
<path d="M86.0918 67.4989C86.0918 67.4989 86.6595 82.7088 97.8555 90.169C109.052 97.6292 117.369 93.3257 121.962 87.0124C126.555 80.699 129.428 74.3856 129.428 65.2052C129.428 56.0247 130.563 51.9993 127.418 46.2594C124.273 40.5195 113.355 37.6523 113.355 37.6523C108.819 43.3128 103.931 48.6811 98.7185 53.7253C90.1058 62.0428 86.0918 67.4989 86.0918 67.4989Z" stroke="#263238" stroke-linecap="round" stroke-linejoin="round"/>
<path d="M96.6807 65.7104L103.125 66.3123" stroke="#263238" stroke-linecap="round" stroke-linejoin="round"/>
<path d="M116.211 65.5063C116.211 65.5063 120.441 64.7001 122.456 65.5063" stroke="#263238" stroke-linecap="round" stroke-linejoin="round"/>
<path d="M102.255 62.7638C102.255 64.2968 101.569 65.5401 100.723 65.5401C99.8766 65.5401 99.1953 64.2968 99.1953 62.7638C99.1953 61.2309 99.8766 59.9875 100.723 59.9875C101.569 59.9875 102.255 61.2309 102.255 62.7638Z" fill="#263238"/>
<path d="M105.702 72.4611C106.73 73.1061 107.94 73.3995 109.15 73.2971C110.359 73.1947 111.502 72.702 112.407 71.8933" stroke="#263238" stroke-linecap="round" stroke-linejoin="round"/>
<path d="M107.445 78.9447C107.445 78.9447 113.378 81.4371 116.825 73.3921" stroke="#263238" stroke-linecap="round" stroke-linejoin="round"/>
<path d="M115.087 62.8605C115.087 62.8605 118.726 60.3681 122.365 61.901" stroke="#263238" stroke-width="2" stroke-linecap="round" stroke-linejoin="round"/>
<path d="M113.94 56.5641C113.94 56.5641 117.96 52.5445 123.513 55.7977" stroke="#263238" stroke-width="2" stroke-linecap="round" stroke-linejoin="round"/>
<path d="M105.322 54.0489C105.322 54.0489 101.876 50.6027 97.084 53.8616" stroke="#263238" stroke-width="2" stroke-linecap="round" stroke-linejoin="round"/>
<path d="M27.5344 150.305C27.5344 150.305 21.4141 157.118 21.4141 164.243C21.4141 171.368 25.4905 177.869 36.7433 188.043C47.996 198.217 58.4994 205.723 62.9221 208.107C67.3449 210.492 71.7619 207.426 71.7619 207.426C71.7619 207.426 79.0745 214.733 79.9205 213.035C80.7664 211.338 77.3713 208.783 76.69 207.767C76.092 206.959 75.4087 206.219 74.6518 205.558C74.6518 205.558 78.2229 206.063 79.5855 207.261C80.9481 208.459 83.151 210.492 84.1729 210.322C85.1949 210.151 85.1949 209.3 83.6619 207.261C82.4261 205.665 80.9334 204.286 79.2449 203.179C78.2229 202.504 74.8221 200.63 74.8221 200.63C74.8221 200.63 79.7502 200.289 81.4534 201.311C83.1567 202.333 87.7441 205.394 88.0847 204.031C88.4253 202.668 88.4254 201.822 86.7221 200.289C85.0189 198.757 81.6124 196.883 79.5855 196.548C78.1883 196.291 76.8207 195.893 75.5034 195.361C75.5034 195.361 79.4152 193.999 80.7721 193.999C82.129 193.999 87.5851 196.718 89.101 196.383C90.6169 196.048 89.7823 194.68 88.5957 193.828C87.4091 192.977 82.1347 190.939 79.9205 190.768C77.7063 190.598 65.301 194.85 63.7737 194.85C62.2465 194.85 58.3347 189.411 54.2526 182.099C50.1705 174.786 48.6433 163.397 39.9737 159.491" fill="#FF7625"/>
<mask id="mask3_135_1819" style="mask-type:luminance" maskUnits="userSpaceOnUse" x="21" y="150" width="69" height="64">
<path d="M27.5344 150.305C27.5344 150.305 21.4141 157.118 21.4141 164.243C21.4141 171.368 25.4905 177.869 36.7433 188.043C47.996 198.217 58.4994 205.723 62.9221 208.107C67.3449 210.492 71.7619 207.426 71.7619 207.426C71.7619 207.426 79.0745 214.733 79.9205 213.035C80.7664 211.338 77.3713 208.783 76.69 207.767C76.092 206.959 75.4087 206.219 74.6518 205.558C74.6518 205.558 78.2229 206.063 79.5855 207.261C80.9481 208.459 83.151 210.492 84.1729 210.322C85.1949 210.151 85.1949 209.3 83.6619 207.261C82.4261 205.665 80.9334 204.286 79.2449 203.179C78.2229 202.504 74.8221 200.63 74.8221 200.63C74.8221 200.63 79.7502 200.289 81.4534 201.311C83.1567 202.333 87.7441 205.394 88.0847 204.031C88.4253 202.668 88.4254 201.822 86.7221 200.289C85.0189 198.757 81.6124 196.883 79.5855 196.548C78.1883 196.291 76.8207 195.893 75.5034 195.361C75.5034 195.361 79.4152 193.999 80.7721 193.999C82.129 193.999 87.5851 196.718 89.101 196.383C90.6169 196.048 89.7823 194.68 88.5957 193.828C87.4091 192.977 82.1347 190.939 79.9205 190.768C77.7063 190.598 65.301 194.85 63.7737 194.85C62.2465 194.85 58.3347 189.411 54.2526 182.099C50.1705 174.786 48.6433 163.397 39.9737 159.491" fill="white"/>
</mask>
<g mask="url(#mask3_135_1819)">
<g opacity="0.2">
<path d="M26.7793 174.287C27.0121 174.287 27.8637 174.854 26.7793 176.507C27.8637 174.866 27.0121 174.287 26.7793 174.287Z" fill="black"/>
<path d="M40.4052 167.474C40.1724 167.474 39.3208 168.041 40.4052 169.694C41.4896 168.053 40.6379 167.474 40.4052 167.474Z" fill="black"/>
<path d="M29.2881 162.103C29.1689 161.898 28.2378 161.455 27.3691 163.238C29.3335 163.329 29.4074 162.301 29.2881 162.103Z" fill="black"/>
<path d="M29.0957 176.404C29.1524 176.343 29.2001 176.274 29.2376 176.2C29.293 176.135 29.3268 176.054 29.3344 175.969C29.342 175.883 29.323 175.798 29.2801 175.724C29.2372 175.65 29.1724 175.591 29.0947 175.555C29.0169 175.519 28.93 175.509 28.8459 175.524C28.5975 175.519 28.3556 175.604 28.1646 175.763C28.0489 175.854 27.9424 175.957 27.8466 176.069C27.7326 176.206 27.63 176.353 27.54 176.507H28.9821C29.0225 176.475 29.0604 176.441 29.0957 176.404Z" fill="black"/>
<path d="M42.9141 168.916C42.7949 168.711 41.8638 168.268 40.9951 170.051C42.9595 170.142 43.0277 169.114 42.9141 168.916Z" fill="black"/>
<path d="M39.8147 170.034C38.946 168.269 38.0149 168.711 37.8957 168.899C37.7765 169.086 37.8559 170.142 39.8147 170.034Z" fill="black"/>
<path d="M26.7793 160.661V162.881C27.8637 161.24 27.0121 160.661 26.7793 160.661Z" fill="black"/>
<path d="M26.7793 174.287V176.507C27.8637 174.866 27.0121 174.287 26.7793 174.287Z" fill="black"/>
<path d="M54.0315 201.539C53.9309 201.559 53.8371 201.605 53.7587 201.671C53.6803 201.738 53.6199 201.823 53.583 201.919L54.5425 202.623C54.6844 201.839 54.2019 201.539 54.0315 201.539Z" fill="black"/>
<path d="M67.6571 208.352C67.5139 208.387 67.3859 208.467 67.2918 208.58C67.1978 208.694 67.1427 208.835 67.1348 208.982C67.4758 208.955 67.815 208.909 68.151 208.846C68.1239 208.725 68.0631 208.614 67.9757 208.527C67.8882 208.439 67.7778 208.379 67.6571 208.352Z" fill="black"/>
<path d="M54.0311 187.913C53.7984 187.913 52.9467 188.48 54.0311 190.132C55.1155 188.492 54.2639 187.913 54.0311 187.913Z" fill="black"/>
<path d="M67.6567 196.945C68.7411 195.305 67.8895 194.726 67.6567 194.726C67.4239 194.726 66.5666 195.305 67.6567 196.945Z" fill="black"/>
<path d="M40.4047 183.32C41.4891 181.679 40.6375 181.1 40.4047 181.1C40.172 181.1 39.3147 181.679 40.4047 183.32Z" fill="black"/>
<path d="M56.5405 202.98C56.4496 202.827 55.9046 202.538 55.2744 203.145C55.581 203.372 55.8876 203.588 56.1885 203.798C56.3309 203.722 56.4432 203.599 56.5071 203.451C56.5711 203.302 56.5828 203.136 56.5405 202.98Z" fill="black"/>
<path d="M54.6445 190.473C56.6033 190.581 56.6771 189.553 56.5635 189.338C56.45 189.122 55.4905 188.707 54.6445 190.473Z" fill="black"/>
<path d="M68.2705 197.286C70.2292 197.394 70.303 196.366 70.1895 196.151C70.0759 195.935 69.1165 195.52 68.2705 197.286Z" fill="black"/>
<path d="M41.0186 183.66C42.983 183.768 43.0511 182.74 42.9375 182.525C42.824 182.309 41.8645 181.894 41.0186 183.66Z" fill="black"/>
<path d="M80.4939 204.105C80.0056 203.719 79.5571 203.406 79.2165 203.174L78.8191 202.924L78.7736 202.981C78.6601 203.174 78.7339 204.133 80.4939 204.105Z" fill="black"/>
<path d="M53.4407 190.473C52.572 188.707 51.6409 189.15 51.5217 189.337C51.4024 189.525 51.4819 190.581 53.4407 190.473Z" fill="black"/>
<path d="M65.1476 196.168C65.0284 196.366 65.1079 197.394 67.0666 197.303C66.198 195.52 65.2669 195.963 65.1476 196.168Z" fill="black"/>
<path d="M37.8956 182.542C37.7821 182.74 37.8559 183.768 39.8146 183.677C38.946 181.894 38.0149 182.337 37.8956 182.542Z" fill="black"/>
<path d="M28.9936 176.507H27.5515C27.5532 176.518 27.5532 176.529 27.5515 176.541C27.5004 176.631 27.4437 176.734 27.3926 176.847C27.9498 176.927 28.5172 176.806 28.9936 176.507Z" fill="black"/>
<path d="M26.7792 160.661C26.5464 160.661 25.6948 161.228 26.7792 162.881V160.661Z" fill="black"/>
<path d="M26.7788 176.507V174.287C26.546 174.287 25.6887 174.866 26.7788 176.507Z" fill="black"/>
<path d="M26.1887 163.221C25.32 161.456 24.3889 161.898 24.2697 162.086C24.1505 162.273 24.23 163.329 26.1887 163.221Z" fill="black"/>
<path d="M25.6887 176.069C25.593 175.957 25.4865 175.854 25.3708 175.763L25.3311 175.734C25.5071 175.99 25.6831 176.251 25.8988 176.507H26.0237C25.9247 176.352 25.8126 176.205 25.6887 176.069Z" fill="black"/>
<path d="M26.0302 176.541C26.0285 176.529 26.0285 176.518 26.0302 176.507H25.9053L26.1551 176.847H26.2119C26.1381 176.734 26.0813 176.631 26.0302 176.541Z" fill="black"/>
</g>
</g>
<path d="M27.5344 150.305C27.5344 150.305 21.4141 157.118 21.4141 164.243C21.4141 171.368 25.4905 177.869 36.7433 188.043C47.996 198.217 58.4994 205.723 62.9221 208.107C67.3449 210.492 71.7619 207.426 71.7619 207.426C71.7619 207.426 79.0745 214.733 79.9205 213.035C80.7664 211.338 77.3713 208.783 76.69 207.767C76.092 206.959 75.4087 206.219 74.6518 205.558C74.6518 205.558 78.2229 206.063 79.5855 207.261C80.9481 208.459 83.151 210.492 84.1729 210.322C85.1949 210.151 85.1949 209.3 83.6619 207.261C82.4261 205.665 80.9334 204.286 79.2449 203.179C78.2229 202.504 74.8221 200.63 74.8221 200.63C74.8221 200.63 79.7502 200.289 81.4534 201.311C83.1567 202.333 87.7441 205.394 88.0847 204.031C88.4253 202.668 88.4254 201.822 86.7221 200.289C85.0189 198.757 81.6124 196.883 79.5855 196.548C78.1883 196.291 76.8207 195.893 75.5034 195.361C75.5034 195.361 79.4152 193.999 80.7721 193.999C82.129 193.999 87.5851 196.718 89.101 196.383C90.6169 196.048 89.7823 194.68 88.5957 193.828C87.4091 192.977 82.1347 190.939 79.9205 190.768C77.7063 190.598 65.301 194.85 63.7737 194.85C62.2465 194.85 58.3347 189.411 54.2526 182.099C50.1705 174.786 48.6433 163.397 39.9737 159.491" stroke="#263238" stroke-linecap="round" stroke-linejoin="round"/>
<path d="M88.5668 193.823C87.3746 192.977 82.1059 190.933 79.8917 190.763C77.6774 190.592 65.2721 194.845 63.7449 194.845C62.2177 194.845 58.3059 189.406 54.2238 182.093C51.9528 178.034 50.4766 172.714 48.1205 168.121C35.63 166.418 30.2762 173.719 27.8008 178.97C30.5569 182.202 33.5353 185.238 36.7144 188.054C47.9331 198.274 58.4705 205.734 62.8933 208.119C67.316 210.503 71.7331 207.437 71.7331 207.437C71.7331 207.437 79.0457 214.744 79.8917 213.047C80.7376 211.349 77.3425 208.794 76.6612 207.778C76.0632 206.971 75.3798 206.23 74.623 205.569C74.623 205.569 78.1941 206.075 79.5567 207.273C80.9193 208.471 83.1221 210.503 84.1441 210.333C85.166 210.163 85.166 209.311 83.6331 207.273C82.3973 205.676 80.9046 204.297 79.216 203.191C78.1941 202.515 74.7933 200.641 74.7933 200.641C74.7933 200.641 79.7213 200.301 81.4246 201.323C83.1278 202.345 87.7152 205.405 88.0559 204.042C88.3965 202.68 88.3965 201.834 86.6933 200.301C84.99 198.768 81.5835 196.894 79.5567 196.559C78.1595 196.302 76.7918 195.905 75.4746 195.373C75.4746 195.373 79.3864 194.01 80.7433 194.01C82.1002 194.01 87.5563 196.73 89.0721 196.395C90.588 196.06 89.7534 194.674 88.5668 193.823Z" fill="#B2B2B2" stroke="#263238" stroke-linecap="round" stroke-linejoin="round"/>
<path d="M162.38 156.687C160.961 153.445 162.175 146.348 163.595 136.214C165.014 126.079 166.434 115.741 166.434 110.267C166.434 104.794 167.336 97.2092 165.554 94.7622C163.771 92.3153 157.282 85.6783 156.799 82.6011C156.316 79.5239 160.688 74.8173 160.688 74.8173C160.688 74.8173 161.988 72.3816 163.124 73.6818C164.259 74.9819 163.771 76.6 163.124 78.871C162.476 81.142 161.823 82.9247 161.823 82.9247C161.823 82.9247 167.501 84.7074 168.96 83.7366C170.419 82.7657 170.289 77.2132 170.186 74.4936C169.976 69.1909 167.853 71.4562 166.383 73.9656C165.673 75.1693 161.517 74.4539 163.947 71.371C166.377 68.2882 168.636 65.5686 170.907 68.0043C173.178 70.4399 174.797 75.1409 174.797 75.1409C174.797 75.1409 176.42 67.4138 177.896 62.8718C179.373 58.3299 182.018 56.5301 182.972 56.848C183.926 57.166 183.818 58.75 182.864 60.9699C181.91 63.1898 179.798 69.3158 179.27 71.3256C178.742 73.3354 178.64 75.6575 179.696 75.4475C180.752 75.2374 184.448 68.7878 185.51 66.0399C186.572 63.292 188.15 60.7598 189.944 59.5959C191.738 58.4321 193.22 59.9139 192.482 61.8158C191.016 65.2553 189.351 68.6069 187.497 71.8536C186.331 73.9519 185.342 76.1434 184.539 78.4054C186.28 76.5509 188.114 74.7867 190.035 73.1197C192.573 71.0077 195.321 70.5875 196.161 71.3256C197.001 72.0637 196.269 72.1716 194.157 73.8634C192.045 75.5553 188.888 77.5708 186.362 81.6813C184.405 84.6954 182.876 87.9666 181.82 91.4012C181.034 93.6558 180.006 95.8183 178.754 97.8508C178.754 97.8508 180.735 113.941 184.17 122.792C187.605 131.643 193.68 144.588 191.829 153.836C189.978 163.085 186.413 167.837 181.394 169.291C179.939 169.715 178.404 169.793 176.913 169.518C175.423 169.243 174.017 168.623 172.809 167.707" fill="#FF7625"/>
<mask id="mask4_135_1819" style="mask-type:luminance" maskUnits="userSpaceOnUse" x="156" y="56" width="41" height="114">
<path d="M162.38 156.687C160.961 153.445 162.175 146.348 163.595 136.214C165.014 126.079 166.434 115.741 166.434 110.267C166.434 104.794 167.336 97.2092 165.554 94.7622C163.771 92.3153 157.282 85.6783 156.799 82.6011C156.316 79.5239 160.688 74.8173 160.688 74.8173C160.688 74.8173 161.988 72.3816 163.124 73.6818C164.259 74.9819 163.771 76.6 163.124 78.871C162.476 81.142 161.823 82.9247 161.823 82.9247C161.823 82.9247 167.501 84.7074 168.96 83.7366C170.419 82.7657 170.289 77.2132 170.186 74.4936C169.976 69.1909 167.853 71.4562 166.383 73.9656C165.673 75.1693 161.517 74.4539 163.947 71.371C166.377 68.2882 168.636 65.5686 170.907 68.0043C173.178 70.4399 174.797 75.1409 174.797 75.1409C174.797 75.1409 176.42 67.4138 177.896 62.8718C179.373 58.3299 182.018 56.5301 182.972 56.848C183.926 57.166 183.818 58.75 182.864 60.9699C181.91 63.1898 179.798 69.3158 179.27 71.3256C178.742 73.3354 178.64 75.6575 179.696 75.4475C180.752 75.2374 184.448 68.7878 185.51 66.0399C186.572 63.292 188.15 60.7598 189.944 59.5959C191.738 58.4321 193.22 59.9139 192.482 61.8158C191.016 65.2553 189.351 68.6069 187.497 71.8536C186.331 73.9519 185.342 76.1434 184.539 78.4054C186.28 76.5509 188.114 74.7867 190.035 73.1197C192.573 71.0077 195.321 70.5875 196.161 71.3256C197.001 72.0637 196.269 72.1716 194.157 73.8634C192.045 75.5553 188.888 77.5708 186.362 81.6813C184.405 84.6954 182.876 87.9666 181.82 91.4012C181.034 93.6558 180.006 95.8183 178.754 97.8508C178.754 97.8508 180.735 113.941 184.17 122.792C187.605 131.643 193.68 144.588 191.829 153.836C189.978 163.085 186.413 167.837 181.394 169.291C179.939 169.715 178.404 169.793 176.913 169.518C175.423 169.243 174.017 168.623 172.809 167.707" fill="white"/>
</mask>
<g mask="url(#mask4_135_1819)">
<g opacity="0.2">
<path d="M190.29 65.2791C190.392 65.3015 190.487 65.349 190.567 65.4174C190.646 65.4858 190.707 65.5729 190.744 65.6708C190.708 65.5721 190.648 65.4842 190.568 65.4156C190.489 65.347 190.393 65.3 190.29 65.2791Z" fill="black"/>
<path d="M190.29 65.2791V66.6076L190.744 65.6708C190.707 65.5729 190.646 65.4858 190.567 65.4174C190.487 65.349 190.392 65.3015 190.29 65.2791Z" fill="black"/>
<path d="M192.147 149.448C192.147 149.069 192.13 148.691 192.096 148.312C191.744 148.403 191.301 148.738 190.881 149.601C191.309 149.639 191.74 149.586 192.147 149.448Z" fill="black"/>
<path d="M190.29 147.035V149.255C191.374 147.614 190.523 147.035 190.29 147.035Z" fill="black"/>
<path d="M163.039 78.905C162.84 78.905 162.215 79.3195 162.658 80.4152C162.8 79.9554 162.954 79.4501 163.107 78.9164L163.039 78.905Z" fill="black"/>
<path d="M176.664 87.9379C177.749 86.2971 176.897 85.718 176.664 85.718C176.432 85.718 175.574 86.2971 176.664 87.9379Z" fill="black"/>
<path d="M190.051 67.0902L190.29 66.6076V65.2791C190.074 65.2791 189.353 65.7673 190.051 67.0902Z" fill="black"/>
<path d="M176.665 72.092C176.432 72.092 175.581 72.6598 176.665 74.3119C177.749 72.6711 176.898 72.092 176.665 72.092Z" fill="black"/>
<path d="M165.509 94.4443C165.549 94.3732 165.573 94.2943 165.58 94.213C165.587 94.1317 165.576 94.0498 165.548 93.973C165.496 93.9097 165.43 93.8586 165.355 93.8233C165.281 93.788 165.199 93.7693 165.117 93.7686C165.011 93.7658 164.905 93.7812 164.805 93.8141C165.037 94.0979 165.248 94.3534 165.418 94.5805C165.454 94.5393 165.484 94.4934 165.509 94.4443Z" fill="black"/>
<path d="M179.174 87.16C179.055 86.9556 178.124 86.5128 177.255 88.2955C179.214 88.3864 179.287 87.3587 179.174 87.16Z" fill="black"/>
<path d="M178.896 74.3006C178.874 73.9887 178.874 73.6757 178.896 73.3638C178.533 73.2502 177.868 73.3638 177.238 74.6526C177.815 74.746 178.407 74.6205 178.896 74.3006Z" fill="black"/>
<path d="M179.191 59.9707C179.038 60.2262 178.896 60.5044 178.748 60.7939C178.901 60.7232 179.027 60.6047 179.107 60.4563C179.187 60.3078 179.216 60.1374 179.191 59.9707Z" fill="black"/>
<path d="M160.529 80.3471C160.416 80.5402 160.489 81.5281 162.323 81.4826L162.374 81.335C161.528 79.734 160.648 80.1484 160.529 80.3471Z" fill="black"/>
<path d="M174.155 87.16C174.036 87.3587 174.116 88.3864 176.074 88.2955C175.206 86.5128 174.275 86.9556 174.155 87.16Z" fill="black"/>
<path d="M187.781 66.7211C187.667 66.9199 187.741 67.9418 189.677 67.8566C188.825 66.0796 187.9 66.5168 187.781 66.7211Z" fill="black"/>
<path d="M176.074 74.6526C175.878 74.196 175.56 73.8029 175.154 73.5171C175.063 73.9429 174.984 74.3006 174.927 74.5731C175.301 74.6663 175.69 74.6932 176.074 74.6526Z" fill="black"/>
<path d="M174.502 74.3519C174.411 74.1134 174.297 73.8352 174.167 73.5229C174.121 73.6787 174.129 73.8452 174.19 73.9956C174.251 74.146 174.361 74.2715 174.502 74.3519Z" fill="black"/>
<path d="M176.664 128.816C177.749 127.175 176.897 126.596 176.664 126.596C176.432 126.596 175.574 127.175 176.664 128.816Z" fill="black"/>
<path d="M176.665 112.97C176.432 112.97 175.581 113.538 176.665 115.19C177.749 113.549 176.898 112.97 176.665 112.97Z" fill="black"/>
<path d="M176.665 99.344C176.432 99.344 175.581 99.9117 176.665 101.564C177.749 99.9231 176.898 99.344 176.665 99.344Z" fill="black"/>
<path d="M165.571 121.288C165.571 121.407 165.542 121.532 165.525 121.651C165.576 121.537 165.592 121.411 165.571 121.288Z" fill="black"/>
<path d="M165.548 134.851C165.434 134.658 164.622 134.283 163.811 135.629H165.253C165.378 135.547 165.474 135.428 165.527 135.288C165.581 135.148 165.588 134.995 165.548 134.851Z" fill="black"/>
<path d="M177.277 129.156C179.236 129.264 179.31 128.237 179.196 128.021C179.083 127.805 178.123 127.391 177.277 129.156Z" fill="black"/>
<path d="M179.174 114.412C179.055 114.208 178.124 113.765 177.255 115.547C179.214 115.638 179.287 114.611 179.174 114.412Z" fill="black"/>
<path d="M177.277 101.905C178.719 101.984 179.14 101.45 179.213 101.081L179.162 100.746C178.947 100.536 178.072 100.241 177.277 101.905Z" fill="black"/>
<path d="M188.866 134.862C188.298 134.471 187.861 134.709 187.781 134.862C187.741 135.007 187.749 135.16 187.802 135.299C187.855 135.439 187.951 135.559 188.076 135.64H189.132L188.866 134.862Z" fill="black"/>
<path d="M174.155 128.038C174.036 128.237 174.116 129.264 176.074 129.173C175.206 127.391 174.275 127.834 174.155 128.038Z" fill="black"/>
<path d="M174.155 114.412C174.036 114.611 174.116 115.638 176.074 115.547C175.206 113.765 174.275 114.208 174.155 114.412Z" fill="black"/>
<path d="M174.155 100.786C174.036 100.985 174.116 102.012 176.074 101.922C175.206 100.139 174.275 100.582 174.155 100.786Z" fill="black"/>
<path d="M176.665 167.474C176.443 167.474 175.671 167.996 176.506 169.438L176.79 169.495C177.675 168.008 176.886 167.474 176.665 167.474Z" fill="black"/>
<path d="M163.039 149.255C164.123 147.614 163.271 147.035 163.039 147.035C162.806 147.035 161.948 147.614 163.039 149.255Z" fill="black"/>
<path d="M190.291 147.035C190.058 147.035 189.207 147.603 190.291 149.255V147.035Z" fill="black"/>
<path d="M176.664 156.068C177.749 154.427 176.897 153.848 176.664 153.848C176.432 153.848 175.574 154.427 176.664 156.068Z" fill="black"/>
<path d="M176.665 140.222C176.432 140.222 175.581 140.79 176.665 142.442C177.749 140.801 176.898 140.222 176.665 140.222Z" fill="black"/>
<path d="M179.174 168.916C179.066 168.729 178.288 168.348 177.471 169.603C177.938 169.663 178.408 169.687 178.879 169.677C179.001 169.597 179.096 169.48 179.149 169.344C179.202 169.207 179.211 169.058 179.174 168.916Z" fill="black"/>
<path d="M163.651 149.595C165.61 149.703 165.684 148.676 165.57 148.46C165.457 148.244 164.497 147.83 163.651 149.595Z" fill="black"/>
<path d="M177.277 156.408C179.236 156.516 179.31 155.489 179.196 155.273C179.083 155.057 178.123 154.643 177.277 156.408Z" fill="black"/>
<path d="M179.174 141.664C179.055 141.46 178.124 141.017 177.255 142.799C179.214 142.89 179.287 141.863 179.174 141.664Z" fill="black"/>
<path d="M187.781 162.103C187.69 162.256 187.718 162.898 188.627 163.136C188.78 162.864 188.933 162.568 189.075 162.302C188.434 161.654 187.871 161.944 187.781 162.103Z" fill="black"/>
<path d="M174.479 168.728C174.803 168.882 175.134 169.018 175.472 169.137C175.357 168.988 175.204 168.872 175.03 168.8C174.855 168.729 174.665 168.704 174.479 168.728Z" fill="black"/>
<path d="M162.448 149.595C162.317 149.308 162.147 149.041 161.942 148.801C161.942 149.067 161.897 149.329 161.88 149.59C162.069 149.603 162.258 149.605 162.448 149.595Z" fill="black"/>
<path d="M189.7 149.595C188.832 147.83 187.901 148.272 187.781 148.46C187.662 148.647 187.742 149.703 189.7 149.595Z" fill="black"/>
<path d="M174.155 155.29C174.036 155.489 174.116 156.516 176.074 156.425C175.206 154.643 174.275 155.086 174.155 155.29Z" fill="black"/>
<path d="M174.155 141.664C174.036 141.863 174.116 142.89 176.074 142.799C175.206 141.017 174.275 141.46 174.155 141.664Z" fill="black"/>
<path d="M163.811 135.629C163.748 135.731 163.691 135.844 163.629 135.964C164.194 136.049 164.77 135.928 165.253 135.623H163.811V135.629Z" fill="black"/>
<path d="M189.132 135.629H188.064C188.411 135.861 188.822 135.981 189.24 135.97L189.132 135.629Z" fill="black"/>
</g>
</g>
<path d="M162.38 156.687C160.961 153.445 162.175 146.348 163.595 136.214C165.014 126.079 166.434 115.741 166.434 110.267C166.434 104.794 167.336 97.2092 165.554 94.7622C163.771 92.3153 157.282 85.6783 156.799 82.6011C156.316 79.5239 160.688 74.8173 160.688 74.8173C160.688 74.8173 161.988 72.3816 163.124 73.6818C164.259 74.9819 163.771 76.6 163.124 78.871C162.476 81.142 161.823 82.9247 161.823 82.9247C161.823 82.9247 167.501 84.7074 168.96 83.7366C170.419 82.7657 170.289 77.2132 170.186 74.4936C169.976 69.1909 167.853 71.4562 166.383 73.9656C165.673 75.1693 161.517 74.4539 163.947 71.371C166.377 68.2882 168.636 65.5686 170.907 68.0043C173.178 70.4399 174.797 75.1409 174.797 75.1409C174.797 75.1409 176.42 67.4138 177.896 62.8718C179.373 58.3299 182.018 56.5301 182.972 56.848C183.926 57.166 183.818 58.75 182.864 60.9699C181.91 63.1898 179.798 69.3158 179.27 71.3256C178.742 73.3354 178.64 75.6575 179.696 75.4475C180.752 75.2374 184.448 68.7878 185.51 66.0399C186.572 63.292 188.15 60.7598 189.944 59.5959C191.738 58.4321 193.22 59.9139 192.482 61.8158C191.016 65.2553 189.351 68.6069 187.497 71.8536C186.331 73.9519 185.342 76.1434 184.539 78.4054C186.28 76.5509 188.114 74.7867 190.035 73.1197C192.573 71.0077 195.321 70.5875 196.161 71.3256C197.001 72.0637 196.269 72.1716 194.157 73.8634C192.045 75.5553 188.888 77.5708 186.362 81.6813C184.405 84.6954 182.876 87.9666 181.82 91.4012C181.034 93.6558 180.006 95.8183 178.754 97.8508C178.754 97.8508 180.735 113.941 184.17 122.792C187.605 131.643 193.68 144.588 191.829 153.836C189.978 163.085 186.413 167.837 181.394 169.291C179.939 169.715 178.404 169.793 176.913 169.518C175.423 169.243 174.017 168.623 172.809 167.707" stroke="#263238" stroke-linecap="round" stroke-linejoin="round"/>
<path d="M186.362 81.6812C188.9 77.5593 192.073 75.5495 194.185 73.8633C196.297 72.1771 197.024 72.0635 196.19 71.3255C195.355 70.5874 192.601 71.0075 190.064 73.1195C188.143 74.7865 186.308 76.5507 184.568 78.4053C185.362 76.1442 186.341 73.9527 187.497 71.8535C189.346 68.6063 191.005 65.2548 192.465 61.8157C193.203 59.9137 191.727 58.4092 189.927 59.5958C188.128 60.7824 186.549 63.2918 185.493 66.0397C184.437 68.7876 180.735 75.2372 179.679 75.4473C178.623 75.6574 178.726 73.3296 179.254 71.3255C179.782 69.3213 181.899 63.1896 182.847 60.9697C183.796 58.7498 183.903 57.1658 182.955 56.8479C182.007 56.5299 179.361 58.324 177.88 62.8717C176.398 67.4194 174.78 75.1407 174.78 75.1407C174.78 75.1407 173.162 70.4341 170.891 68.0041C168.62 65.5742 166.349 68.288 163.93 71.3709C161.511 74.4537 165.633 75.1691 166.366 73.9655C167.836 71.456 169.96 69.1907 170.17 74.4935C170.272 77.213 170.402 82.7599 168.943 83.7364C167.484 84.713 161.807 82.9245 161.807 82.9245C161.807 82.9245 162.454 81.1418 163.107 78.8708C163.76 76.5998 164.242 74.9761 163.107 73.6816C161.971 72.3871 160.671 74.8171 160.671 74.8171C160.671 74.8171 156.294 79.5181 156.782 82.6009C157.27 85.6838 163.754 92.3265 165.537 94.7621C167.32 97.1977 166.417 104.794 166.417 110.267C166.417 115.74 164.997 126.079 163.578 136.213C163.578 136.35 163.538 136.475 163.521 136.605C165.764 138.961 170.334 142.339 178.061 142.078C183.239 141.902 186.907 139.296 189.388 136.429C187.741 131.529 185.675 126.777 184.142 122.803C180.707 113.952 178.726 97.862 178.726 97.862C179.978 95.8295 181.006 93.667 181.791 91.4124C182.856 87.9723 184.394 84.6972 186.362 81.6812Z" fill="#B2B2B2" stroke="#263238" stroke-linecap="round" stroke-linejoin="round"/>
<path d="M170.817 97.2149C170.817 97.2149 169.869 93.2009 171.243 90.6631C171.965 89.2201 173.156 88.0651 174.621 87.3872" stroke="#263238" stroke-linecap="round" stroke-linejoin="round"/>
</svg>
