<svg width="18" height="19" viewBox="0 0 18 19" fill="none" xmlns="http://www.w3.org/2000/svg">
<path fill-rule="evenodd" clip-rule="evenodd" d="M13.5485 6.25928C11.9447 6.25928 10.6351 4.95949 10.6351 3.35569V1.36605L15.7817 6.25928H13.5485ZM10.4578 13.6819H5.19723C4.79385 13.6819 4.46646 13.3546 4.46646 12.9512C4.46646 12.5478 4.79385 12.2204 5.19723 12.2204H10.4578C10.8622 12.2204 11.1886 12.5478 11.1886 12.9512C11.1886 13.3546 10.8622 13.6819 10.4578 13.6819ZM5.19528 8.31226H8.46523C8.86862 8.31226 9.196 8.63964 9.196 9.04303C9.196 9.44738 8.86862 9.7738 8.46523 9.7738H5.19528C4.7919 9.7738 4.46451 9.44738 4.46451 9.04303C4.46451 8.63964 4.7919 8.31226 5.19528 8.31226ZM17.1487 6.43077C17.1487 6.39179 17.1487 6.36256 17.139 6.32359C17.1097 6.1482 17.0805 5.97282 17.0513 5.80718C17.0318 5.7 16.9831 5.61231 16.9051 5.53436L11.3805 0.272821C11.3123 0.204615 11.2149 0.155897 11.1174 0.146154C10.9518 0.126667 10.7764 0.107179 10.601 0.0876923C10.5718 0.0779487 10.5328 0.0779487 10.5036 0.0779487C9.93846 0.0292308 9.31487 0 8.66205 0C2.27026 0 0 2.48462 0 9.5C0 16.5056 2.27026 19 8.66205 19C15.0636 19 17.3338 16.5056 17.3338 9.5C17.3338 8.33077 17.2754 7.31744 17.1487 6.43077Z" fill="#949494"/>
</svg>
