<svg width="18" height="18" viewBox="0 0 18 18" fill="none" xmlns="http://www.w3.org/2000/svg">
<path d="M5.25 5.8875C4.545 6.735 4.125 7.815 4.125 9C4.125 11.6925 6.3075 13.875 9 13.875C11.6925 13.875 13.875 11.6925 13.875 9C13.875 6.3075 11.6925 4.125 9 4.125" stroke="#093A75" stroke-width="1.5" stroke-linecap="round" stroke-linejoin="round"/>
<path d="M14.355 14.355L14.2575 14.2575M14.2575 3.7425L14.355 3.645L14.2575 3.7425ZM3.645 14.355L3.7425 14.2575L3.645 14.355ZM9 1.56V1.5V1.56ZM9 16.5V16.44V16.5ZM1.56 9H1.5H1.56ZM16.5 9H16.44H16.5ZM3.7425 3.7425L3.645 3.645L3.7425 3.7425Z" stroke="#093A75" stroke-width="2" stroke-linecap="round" stroke-linejoin="round"/>
</svg>
