<svg width="16" height="20" viewBox="0 0 16 20" fill="none" xmlns="http://www.w3.org/2000/svg">
<path d="M15.0294 12.49L14.0294 10.83C13.8194 10.46 13.6294 9.76 13.6294 9.35V6.82C13.6294 4.47 12.2494 2.44 10.2594 1.49C9.7394 0.57 8.7794 0 7.6794 0C6.5894 0 5.6094 0.59 5.0894 1.52C3.1394 2.49 1.7894 4.5 1.7894 6.82V9.35C1.7894 9.76 1.5994 10.46 1.3894 10.82L0.379396 12.49C-0.0206039 13.16 -0.110604 13.9 0.139396 14.58C0.379396 15.25 0.949396 15.77 1.6894 16.02C3.6294 16.68 5.6694 17 7.7094 17C9.7494 17 11.7894 16.68 13.7294 16.03C14.4294 15.8 14.9694 15.27 15.2294 14.58C15.4894 13.89 15.4194 13.13 15.0294 12.49Z" fill="#FF7625"/>
<path d="M10.5191 18.01C10.0991 19.17 8.98914 20 7.68914 20C6.89914 20 6.11914 19.68 5.56914 19.11C5.24914 18.81 5.00914 18.41 4.86914 18C4.99914 18.02 5.12914 18.03 5.26914 18.05C5.49914 18.08 5.73914 18.11 5.97914 18.13C6.54914 18.18 7.12914 18.21 7.70914 18.21C8.27914 18.21 8.84914 18.18 9.40914 18.13C9.61914 18.11 9.82914 18.1 10.0291 18.07C10.1891 18.05 10.3491 18.03 10.5191 18.01Z" fill="#FF7625"/>
</svg>
